<?xml version="1.0" standalone="no"?>
<!DOCTYPE svg PUBLIC "-//W3C//DTD SVG 20010904//EN"
 "http://www.w3.org/TR/2001/REC-SVG-20010904/DTD/svg10.dtd">
<svg version="1.0" xmlns="http://www.w3.org/2000/svg"
 width="564.000000pt" height="564.000000pt" viewBox="0 0 564.000000 564.000000"
 preserveAspectRatio="xMidYMid meet">

<g transform="translate(0.000000,564.000000) scale(0.100000,-0.100000)"
fill="#000000" stroke="none">
<path d="M52 5599 l-53 -40 3 -117 c3 -113 4 -117 26 -120 12 -2 22 -7 22 -11
0 -5 -11 -6 -25 -3 -19 3 -25 0 -25 -12 0 -26 46 -66 75 -66 19 0 25 -5 25
-21 0 -22 62 -55 82 -43 6 4 8 3 5 -3 -3 -5 3 -16 15 -24 11 -8 26 -19 32 -24
11 -10 62 -35 71 -35 3 0 -14 29 -38 64 -95 144 -147 261 -147 332 0 36 14 97
35 147 14 33 -46 20 -103 -24z"/>
<path d="M1222 5628 c3 -7 15 -14 27 -16 14 -2 21 -9 18 -17 -3 -7 19 -35 49
-63 33 -31 49 -52 41 -55 -9 -4 -9 -7 1 -15 7 -5 10 -16 6 -25 -4 -11 -1 -17
8 -17 8 0 20 -11 26 -25 8 -18 22 -26 52 -31 25 -4 45 -14 51 -25 7 -14 6 -19
-2 -19 -7 0 -10 -3 -7 -6 4 -3 19 1 36 10 23 12 32 12 43 3 7 -7 5 -2 -5 11
-20 23 -32 30 -20 10 4 -7 3 -8 -4 -4 -6 4 -9 13 -6 20 3 8 1 17 -5 21 -22 13
-10 20 40 23 32 1 65 10 87 24 30 18 39 20 66 10 39 -14 59 -15 52 -3 -3 5 1
12 10 15 25 10 37 7 31 -7 -4 -10 2 -13 20 -9 18 3 24 1 19 -7 -4 -6 -14 -11
-22 -11 -8 0 -14 -5 -14 -11 0 -5 5 -7 10 -4 6 3 10 1 10 -4 0 -19 23 -12 52
16 15 15 28 35 28 45 0 11 5 16 10 13 6 -3 10 -13 10 -22 0 -18 63 -90 295
-338 88 -93 190 -207 227 -251 127 -153 171 -188 383 -299 61 -32 134 -73 162
-91 29 -19 76 -41 105 -50 60 -20 111 -49 148 -86 14 -14 57 -40 95 -59 39
-19 73 -38 77 -44 4 -6 8 -2 8 8 0 27 1 31 12 45 32 38 136 -13 151 -75 5 -22
-23 -58 -36 -48 -4 3 4 -7 18 -21 14 -15 25 -34 25 -42 0 -8 2 -13 5 -10 3 3
37 -24 74 -61 38 -36 112 -106 165 -154 l97 -88 101 4 102 5 48 51 c47 51 62
57 128 52 62 -4 94 -14 116 -38 13 -14 26 -24 29 -21 9 9 -39 98 -55 103 -9 3
-60 1 -115 -5 -95 -9 -101 -9 -117 11 -10 12 -15 25 -12 30 12 20 -154 14
-204 -7 -49 -20 -76 -5 -96 52 -9 26 -16 67 -16 91 0 42 1 43 33 43 18 0 49
-11 70 -26 25 -17 68 -31 123 -41 109 -20 128 -13 130 48 3 83 22 194 42 249
11 30 24 75 27 100 4 25 11 55 16 68 8 21 11 22 25 8 27 -27 45 -126 49 -269
2 -76 8 -143 13 -150 5 -7 8 -20 7 -29 -3 -15 0 -16 16 -7 11 5 17 14 14 20
-4 5 3 9 13 9 11 0 42 21 69 48 31 29 60 48 76 48 28 2 61 27 49 38 -3 4 1 4
11 0 10 -3 17 -1 17 5 0 6 7 11 16 11 8 0 12 4 9 10 -3 5 0 7 7 5 8 -3 29 9
48 27 18 18 30 27 26 21 -5 -9 -2 -11 8 -7 9 3 14 10 11 14 -3 4 2 11 11 14 9
4 13 2 8 -5 -4 -8 0 -7 15 0 11 7 21 14 21 17 0 3 -5 2 -12 -2 -7 -4 -8 -3 -4
4 4 6 13 9 21 5 8 -3 15 0 15 6 0 6 5 11 10 11 6 0 22 11 36 25 23 23 37 29
57 26 5 -1 6 3 3 8 -4 5 4 13 16 17 13 4 25 10 28 15 11 16 185 112 202 111
10 0 21 4 24 10 5 7 2 8 -7 3 -8 -4 2 6 21 23 19 16 80 52 135 79 55 26 103
52 106 56 3 4 10 7 15 5 9 -3 33 15 88 65 20 19 25 27 12 23 -10 -4 -62 0
-115 9 -53 8 -152 22 -221 30 -69 8 -192 24 -273 35 -82 11 -189 22 -238 26
-49 4 -89 9 -89 12 0 18 78 72 164 112 189 88 218 101 264 112 26 6 81 21 122
34 75 24 344 74 394 74 l26 0 0 94 0 93 -74 7 c-40 4 -92 4 -113 0 -39 -6 -83
7 -83 25 0 4 27 13 60 19 47 8 67 8 93 -2 17 -7 51 -11 75 -8 l42 4 0 44 0 44
-584 0 -585 0 -3 -27 c-2 -21 -12 -32 -38 -44 -19 -9 -40 -14 -47 -12 -16 6
-17 37 -3 64 9 16 7 19 -9 19 -14 0 -27 -13 -41 -40 -14 -27 -34 -47 -63 -61
-64 -33 -212 -126 -303 -191 -136 -96 -204 -111 -174 -38 22 52 225 219 348
286 l73 39 -1080 3 -1080 2 -44 -30 c-25 -16 -50 -30 -56 -30 -22 0 -11 21 22
40 l32 20 -393 0 c-311 0 -393 -3 -390 -12z m78 -53 c0 -5 -5 -3 -10 5 -5 8
-10 20 -10 25 0 6 5 3 10 -5 5 -8 10 -19 10 -25z m4085 -76 c40 -11 40 -12
-114 -50 -164 -40 -185 -47 -271 -89 -30 -15 -78 -30 -105 -33 -28 -4 -68 -14
-90 -23 -34 -12 -41 -20 -40 -42 0 -25 -11 -33 -130 -92 -71 -36 -163 -85
-203 -109 -59 -35 -79 -42 -105 -37 -20 3 -39 0 -51 -9 -36 -27 -137 -14 -136
18 1 17 289 203 377 244 39 18 83 33 98 33 23 0 24 2 15 20 -9 17 -6 21 26 35
21 8 46 13 56 9 10 -3 63 8 116 25 126 39 201 58 342 86 134 27 161 29 215 14z
m105 -39 c0 -5 -7 -10 -15 -10 -8 0 -15 5 -15 10 0 6 7 10 15 10 8 0 15 -4 15
-10z m-45 -10 c8 -13 -15 -13 -35 0 -12 8 -11 10 7 10 12 0 25 -4 28 -10z
m-3555 -13 c0 -2 -10 -12 -22 -23 l-23 -19 19 23 c18 21 26 27 26 19z m2513
-443 c8 -8 -101 -111 -126 -120 -23 -7 -46 12 -40 34 2 10 30 34 61 54 54 35
91 46 105 32z m-185 -48 c8 -38 -62 -50 -92 -17 -26 29 -11 42 42 39 37 -2 48
-7 50 -22z m-118 -92 c0 -19 -69 -94 -86 -94 -18 0 -18 9 1 53 21 52 85 82 85
41z"/>
<path d="M1420 5340 c0 -5 4 -10 9 -10 5 0 12 -11 15 -25 4 -14 11 -25 16 -25
6 0 10 11 10 25 0 16 -6 25 -15 25 -8 0 -15 5 -15 10 0 6 -4 10 -10 10 -5 0
-10 -4 -10 -10z"/>
<path d="M1465 5250 c-3 -5 -1 -10 4 -10 6 0 11 5 11 10 0 6 -2 10 -4 10 -3 0
-8 -4 -11 -10z"/>
<path d="M2 5127 l0 -112 34 -16 c26 -13 32 -13 23 -3 -19 23 47 18 71 -6 19
-19 19 -19 -13 -13 l-32 6 20 -23 20 -23 -25 8 c-14 4 -28 13 -32 19 -5 8 -11
7 -20 -3 -10 -10 -10 -12 0 -7 14 8 12 -28 -3 -41 -4 -5 -5 -3 -1 4 4 7 -2 17
-15 23 -17 10 -20 9 -13 -1 13 -22 12 -48 -3 -42 -10 4 -13 -8 -13 -50 0 -52
2 -57 30 -71 16 -8 30 -10 30 -5 0 5 8 9 18 9 15 0 15 -2 2 -11 -12 -9 -12
-10 3 -5 10 3 21 6 24 6 3 0 -5 8 -17 18 -18 15 -20 20 -9 24 8 3 23 0 34 -8
10 -8 15 -14 11 -14 -5 0 -3 -7 4 -15 16 -19 27 -19 27 -1 0 8 -6 12 -15 8
-10 -3 -13 -1 -8 6 4 7 15 12 24 12 15 0 15 2 2 10 -13 8 -13 10 2 10 39 0 53
-83 19 -105 -6 -3 -9 -10 -6 -15 3 -5 -4 -8 -15 -7 -11 1 -20 7 -20 14 0 7 -5
13 -11 13 -6 0 -8 -7 -5 -15 3 -9 -1 -18 -9 -21 -7 -3 -21 -17 -30 -31 -10
-15 -12 -22 -4 -18 7 5 4 -4 -7 -18 -11 -16 -26 -25 -36 -23 -12 3 -15 -1 -10
-13 5 -13 3 -14 -10 -3 -14 11 -16 -6 -17 -178 -1 -104 0 -190 2 -190 4 0 62
85 93 137 10 17 46 63 79 101 33 38 80 95 105 126 46 57 60 67 60 42 0 -7 18
-32 40 -55 34 -34 44 -40 69 -35 24 5 32 1 47 -22 10 -16 24 -33 31 -37 7 -4
13 -15 13 -23 0 -26 70 -124 89 -124 6 0 11 -4 11 -10 0 -5 6 -10 14 -10 8 0
16 -7 18 -15 2 -10 7 -12 18 -5 13 9 12 13 -7 29 -13 11 -23 31 -23 45 0 14
-4 26 -8 26 -5 0 -16 16 -25 35 -9 20 -24 38 -32 41 -12 5 -13 10 -4 20 9 11
8 14 -5 14 -20 0 -21 26 -1 34 8 3 15 1 15 -4 0 -5 8 -11 18 -14 9 -3 23 -19
30 -35 7 -16 27 -44 45 -63 18 -19 42 -48 54 -64 12 -16 35 -44 52 -63 17 -19
31 -38 31 -43 0 -4 15 -29 33 -55 18 -27 39 -66 46 -88 8 -22 26 -59 41 -82
16 -22 34 -58 41 -80 7 -21 21 -46 31 -56 12 -12 16 -26 11 -47 -4 -23 1 -38
21 -64 14 -19 26 -42 26 -51 0 -8 7 -18 15 -21 8 -4 15 -14 15 -23 0 -10 7
-26 15 -37 18 -23 19 -61 3 -66 -8 -3 2 -24 27 -59 37 -52 138 -173 161 -194
6 -5 33 -39 60 -74 27 -35 57 -74 68 -88 25 -32 12 -42 -19 -13 -21 20 -31 22
-81 17 -36 -4 -60 -12 -68 -23 -10 -13 -21 -15 -50 -10 -25 5 -43 2 -58 -8
-15 -11 -34 -14 -60 -9 -29 4 -42 2 -51 -10 -8 -10 -66 -24 -173 -41 -89 -14
-182 -35 -206 -46 -47 -21 -237 -61 -251 -53 -4 2 -7 19 -7 36 l-1 32 -16 -30
c-9 -16 -44 -67 -79 -113 -35 -45 -64 -85 -64 -89 0 -3 9 6 21 21 26 33 43 33
81 1 27 -23 36 -25 87 -20 63 6 103 -8 109 -40 7 -32 -26 -45 -112 -46 -45 0
-97 -7 -116 -14 l-35 -13 33 -1 c57 -2 56 -55 -2 -74 -55 -18 -105 22 -70 58
9 8 10 16 4 20 -5 3 -10 21 -11 38 l-1 32 -10 -35 c-25 -92 -18 -85 -83 -85
-33 -1 -81 -2 -107 -3 l-48 -2 0 -145 0 -145 25 0 c26 0 62 -41 50 -60 -3 -5
-22 -10 -41 -10 -34 0 -35 -2 -32 -32 2 -25 9 -33 32 -39 15 -4 36 -15 46 -24
16 -14 21 -15 33 -4 8 7 12 22 9 33 -5 17 -1 18 26 13 35 -7 41 -1 16 18 -21
15 -10 55 14 55 15 0 15 2 2 10 -13 8 -12 10 4 10 14 0 17 -5 13 -23 -11 -43
3 -49 89 -39 81 9 114 6 114 -9 0 -5 27 -9 59 -9 53 0 64 4 101 35 25 21 58
38 81 41 39 7 39 7 18 25 -11 10 -18 22 -15 28 4 5 -2 12 -11 14 -16 4 -16 5
-1 6 11 1 15 7 11 22 -4 14 0 26 11 35 20 14 10 37 -30 67 -23 17 -25 17 -63
-3 -48 -24 -70 -25 -78 -5 -8 21 22 52 63 65 44 15 44 30 0 30 -26 0 -41 -8
-62 -32 -17 -21 -34 -32 -46 -30 -11 2 -25 -2 -33 -8 -8 -7 -19 -9 -25 -5 -17
10 -31 55 -25 75 6 19 69 43 144 55 27 4 53 17 66 31 12 13 32 24 43 24 24 0
142 72 274 167 48 35 92 63 98 63 5 0 7 7 4 15 -9 21 15 74 38 86 27 14 115 2
122 -18 5 -12 17 -13 63 -7 70 8 76 11 60 29 -8 9 -16 10 -25 3 -16 -14 -27
-4 -16 14 5 7 7 21 6 31 -3 18 -2 19 73 21 28 1 57 5 66 9 11 5 22 2 33 -8 12
-12 26 -15 49 -11 27 5 38 0 70 -29 58 -53 51 -62 -45 -62 -106 0 -138 -12
-138 -52 0 -37 -11 -44 -46 -30 -23 8 -26 12 -14 21 12 8 12 9 -3 4 -10 -3
-22 -6 -26 -6 -4 0 -18 -20 -30 -45 -27 -54 -55 -73 -79 -53 -9 7 -13 8 -9 2
4 -6 -11 -31 -32 -56 -39 -44 -53 -81 -66 -173 -4 -27 -14 -63 -22 -79 -9 -17
-18 -53 -22 -81 -5 -43 -10 -51 -31 -55 -14 -3 -42 -14 -63 -23 -21 -10 -47
-15 -58 -12 -15 5 -22 1 -26 -14 -3 -12 -9 -21 -14 -21 -5 0 -9 -13 -9 -30 0
-28 9 -36 35 -30 5 1 7 -1 4 -5 -4 -3 12 -24 35 -45 40 -38 41 -39 25 -66 -16
-26 -15 -28 10 -56 14 -16 55 -50 90 -75 50 -36 79 -49 134 -59 38 -8 73 -11
78 -9 4 3 11 -1 16 -8 7 -13 45 -37 57 -37 3 0 6 14 6 30 0 23 4 30 20 30 24
0 26 -26 4 -51 -15 -17 -13 -20 32 -48 26 -17 49 -30 50 -28 3 3 -23 159 -31
184 -9 27 17 42 39 24 11 -9 19 -9 33 0 16 9 28 7 71 -15 29 -14 52 -30 52
-34 0 -4 19 -13 43 -19 39 -11 44 -10 70 15 20 19 30 23 38 15 19 -19 -27 -70
-70 -77 -46 -7 -87 -30 -144 -81 l-46 -40 26 -16 c25 -17 25 -17 -53 -24 -43
-4 -125 -5 -183 -2 -98 6 -103 5 -87 -11 14 -14 43 -17 191 -20 l175 -4 0 31
0 31 58 0 c31 0 64 5 72 10 11 8 -5 10 -55 9 -38 -1 -76 -6 -83 -12 -16 -13
-17 34 0 51 15 15 78 16 78 0 0 -6 3 -8 6 -5 4 4 1 14 -7 23 -11 14 -11 18 6
30 10 8 27 14 37 14 29 0 89 -33 84 -46 -3 -7 2 -18 10 -24 8 -7 14 -17 14
-23 0 -6 -11 0 -25 13 l-25 23 0 -35 c0 -32 6 -40 46 -67 94 -62 194 -96 194
-66 0 8 8 15 19 15 11 0 21 9 24 22 6 21 7 21 25 4 22 -20 19 -64 -3 -46 -9 8
-14 6 -18 -4 -4 -9 3 -16 16 -19 12 -3 55 -14 95 -25 l73 -20 42 23 c23 13 69
34 102 46 32 12 67 31 75 42 10 12 30 21 51 22 43 2 82 -12 74 -25 -9 -15 -82
-50 -89 -43 -3 4 -6 1 -6 -6 0 -7 -4 -10 -9 -7 -12 8 -83 -29 -74 -38 4 -5 -3
-5 -16 -1 -18 5 -22 4 -16 -6 6 -9 3 -11 -8 -6 -10 3 -17 2 -17 -3 0 -5 -10
-11 -22 -13 -13 -3 4 -2 37 1 33 3 68 6 77 6 9 0 15 3 13 6 -6 10 339 2 380
-8 22 -6 40 -10 42 -9 7 7 -22 111 -45 159 -25 54 -29 57 -57 52 -23 -4 -26
-3 -15 5 27 19 70 13 80 -12 8 -20 9 -19 9 10 1 17 -2 34 -6 36 -5 3 -35 1
-68 -4 -56 -7 -75 -6 -63 6 3 3 36 8 74 12 56 5 64 8 46 16 -42 19 -22 27 66
28 55 0 80 3 67 9 -16 6 -17 9 -5 13 31 11 70 14 70 6 0 -5 -8 -9 -17 -9 -16
0 -16 -1 0 -13 10 -6 20 -28 23 -48 l6 -36 -61 -6 c-34 -3 -68 -11 -76 -17
-12 -10 -19 -10 -32 1 -9 8 -14 9 -11 4 6 -11 11 -42 24 -158 6 -48 10 -58 28
-61 63 -12 510 -121 561 -136 55 -17 132 -39 273 -76 66 -18 384 -64 477 -70
39 -2 104 -6 145 -9 41 -3 197 -7 345 -10 149 -3 317 -9 375 -15 58 -5 225
-11 373 -13 l267 -3 0 163 c0 127 -3 163 -13 163 -7 0 -107 -16 -223 -36 -115
-19 -238 -40 -274 -46 l-65 -11 -252 82 c-138 44 -258 81 -267 81 -18 0 -21
15 -6 25 20 12 10 25 -19 25 -17 0 -32 4 -36 9 -3 5 -34 19 -70 31 -115 38
-99 48 117 75 122 15 152 16 178 5 17 -7 34 -9 38 -5 4 4 1 10 -5 12 -23 8
-13 23 15 23 16 0 75 7 133 16 81 12 158 15 345 12 232 -4 240 -4 222 14 -12
12 -18 33 -18 67 l0 49 46 7 c25 3 64 13 87 21 23 8 47 12 54 10 8 -4 13 3 13
18 0 18 -5 23 -17 20 -10 -2 -54 -13 -98 -24 -44 -11 -82 -15 -85 -10 -3 5 -5
47 -5 94 0 54 -4 85 -10 82 -5 -2 -9 -10 -7 -17 2 -8 0 -45 -4 -84 -5 -50 -9
-64 -15 -50 -6 17 -8 16 -8 -9 -1 -23 -4 -27 -18 -21 -10 4 -43 9 -74 12 -106
8 -112 12 -124 77 -5 31 -15 60 -21 64 -6 4 -16 17 -22 28 -6 12 -31 33 -55
47 l-44 26 -59 -24 c-32 -14 -68 -25 -78 -25 -18 0 -229 78 -315 116 -30 14
-35 13 -53 -2 -10 -10 -16 -24 -13 -32 4 -10 0 -13 -15 -9 -11 3 -20 2 -20 -3
0 -10 57 -34 79 -33 28 1 91 -20 85 -29 -3 -4 12 -16 33 -25 l38 -16 -57 -17
c-31 -10 -67 -15 -81 -13 -13 3 -44 -4 -69 -15 -24 -12 -79 -31 -121 -43 -68
-20 -77 -26 -77 -47 0 -22 4 -23 53 -22 28 1 63 -1 77 -5 19 -5 22 -4 10 4
-17 12 -24 12 197 15 100 2 149 -1 165 -10 22 -13 21 -13 -17 -14 -22 -1 -34
-4 -27 -7 25 -10 11 -20 -30 -21 -24 -1 -76 -7 -116 -13 -54 -9 -76 -9 -81 -1
-4 6 -17 9 -29 5 -12 -3 -19 -9 -16 -14 3 -5 -4 -9 -14 -9 -11 0 -35 -2 -53
-5 -33 -4 -33 -4 6 9 35 13 37 15 13 15 -36 1 -81 -17 -73 -29 3 -5 -1 -10 -9
-10 -10 0 -13 6 -9 16 5 13 2 15 -18 9 -13 -5 -114 -9 -224 -10 -170 -1 -209
2 -259 17 -32 11 -60 17 -63 15 -2 -3 8 -7 22 -11 14 -4 25 -11 25 -16 0 -6
-9 -6 -26 0 -35 14 -39 13 -24 -5 10 -12 24 -14 59 -9 44 6 45 5 25 -10 -18
-12 -22 -25 -21 -67 1 -37 -4 -55 -16 -64 -13 -10 -17 -29 -17 -91 0 -97 -6
-122 -31 -126 -30 -5 -26 -22 6 -28 46 -8 30 -23 -24 -23 -28 -1 -50 -3 -49
-6 2 -24 -5 -32 -24 -29 -17 2 -24 11 -26 31 -2 15 -12 32 -23 38 -12 6 -18
17 -15 27 6 17 -39 37 -359 159 -49 19 -94 38 -99 43 -5 5 10 17 32 28 31 15
50 18 86 12 66 -10 414 -142 421 -159 3 -8 -1 -21 -9 -30 -19 -18 -34 -7 -17
13 13 15 22 11 -233 106 -60 22 -112 38 -115 35 -2 -3 9 -18 26 -34 24 -21 34
-26 43 -17 10 8 11 7 8 -4 -3 -11 27 -29 114 -68 66 -29 129 -54 141 -56 14
-2 22 -10 22 -22 0 -10 4 -22 9 -26 15 -10 38 3 32 19 -3 7 1 16 9 19 8 4 15
19 15 35 0 20 -4 27 -14 23 -8 -3 -17 -1 -20 5 -4 5 2 12 13 16 16 5 19 20 26
108 4 56 11 107 16 113 6 7 -2 9 -24 6 -17 -3 -35 -9 -38 -14 -9 -14 -387 114
-381 130 2 7 19 12 38 12 40 0 41 3 13 41 -18 26 -19 34 -9 59 7 16 19 35 26
41 14 12 74 96 74 104 0 3 -14 12 -30 20 -38 20 -32 31 28 48 96 28 49 65 -88
68 -96 2 -124 24 -81 63 19 17 23 17 93 -9 40 -15 94 -33 121 -41 59 -16 67
-21 67 -43 0 -14 9 -17 48 -15 l48 1 -4 -53 c-5 -55 13 -118 29 -108 5 3 9 -1
9 -9 0 -8 9 -18 21 -23 20 -9 18 -12 -30 -57 -38 -35 -58 -47 -83 -48 -38 -1
-91 -16 -68 -19 31 -4 76 2 105 15 30 13 167 30 215 26 14 -1 58 -1 99 0 64 0
79 4 109 27 26 20 35 23 42 13 9 -15 110 -23 110 -9 0 5 7 3 15 -6 21 -20 20
-21 -29 -40 -32 -12 -50 -14 -70 -7 -14 6 -26 7 -26 2 0 -8 46 -23 108 -36 32
-6 32 -6 22 20 -10 26 -9 27 17 21 21 -5 24 -4 13 4 -13 9 -13 10 0 10 12 0
12 2 2 8 -8 6 1 13 30 22 90 27 107 34 102 41 -2 4 -18 4 -34 -1 -19 -5 -54
-4 -91 3 l-61 11 38 11 c32 9 39 16 45 43 3 17 18 48 33 67 23 30 34 35 69 36
96 4 115 7 184 33 l71 26 77 -30 c41 -16 79 -30 83 -30 12 0 68 54 75 73 7 19
22 22 32 7 4 -6 -4 -19 -17 -29 -12 -10 -34 -28 -48 -39 l-25 -20 28 -13 c22
-10 45 -10 115 0 48 7 94 16 103 21 8 4 29 5 45 3 l29 -6 -20 23 c-19 22 -19
23 -1 17 16 -7 18 -3 12 30 -8 46 -9 74 -3 80 3 2 20 -5 38 -16 31 -19 32 -21
11 -21 -13 0 -20 -4 -17 -10 3 -5 3 -16 -1 -22 -11 -18 -12 -48 -2 -54 4 -3 6
-9 3 -13 -9 -16 110 -31 241 -31 127 0 132 -1 127 -20 -5 -18 0 -20 36 -20 30
0 41 4 41 15 0 8 -8 15 -17 15 -10 0 -25 5 -33 11 -11 8 -7 9 18 5 l32 -5 0
499 0 500 -22 4 c-13 3 -162 24 -333 46 -741 98 -967 119 -490 45 341 -53 608
-103 650 -122 l30 -14 -30 5 c-16 3 -57 8 -90 11 -33 4 -72 9 -87 11 -14 2
-66 8 -115 14 -48 5 -158 18 -243 30 -184 24 -190 24 -190 6 0 -11 -15 -9 -72
10 -40 14 -102 27 -138 30 -36 2 -139 13 -230 24 -91 11 -168 20 -171 20 -4 0
-6 24 -6 54 0 79 -47 147 -107 158 -20 3 -96 76 -96 91 0 12 -153 157 -166
157 -5 0 -20 14 -33 31 -18 24 -25 28 -37 18 -11 -9 -18 -7 -34 11 -20 23 -20
23 -20 2 0 -26 -34 -46 -67 -39 -13 2 -21 1 -16 -3 4 -5 16 -10 25 -12 13 -2
-1 -22 -60 -81 -90 -92 -112 -107 -112 -79 0 22 54 100 75 109 8 3 12 9 9 14
-6 10 19 39 34 39 5 0 10 11 10 25 0 16 -6 25 -16 25 -10 0 -5 9 14 25 16 14
33 25 37 25 5 0 5 5 1 11 -5 8 -8 8 -13 0 -4 -6 -23 -13 -41 -17 -22 -3 -30
-2 -22 3 18 13 -36 65 -73 70 -26 4 -27 3 -10 -14 11 -11 14 -18 6 -21 -6 -2
-9 -8 -5 -13 3 -5 -1 -9 -9 -9 -8 0 -14 8 -14 18 0 35 -3 43 -14 37 -14 -9
-59 -14 -55 -6 2 3 0 15 -5 26 -6 17 -8 17 -8 3 -1 -10 -7 -18 -15 -18 -8 0
-17 -6 -19 -12 -3 -7 -6 1 -7 17 -2 18 -4 23 -7 13 -9 -33 -22 -18 -17 20 4
33 3 34 -6 12 -9 -20 -13 -22 -20 -10 -7 11 -10 8 -10 -12 0 -16 -4 -28 -10
-28 -5 0 -7 13 -4 29 3 16 1 31 -4 35 -10 6 -26 -46 -22 -69 4 -21 -1 -33 -15
-39 -13 -4 -13 -2 -5 14 14 26 13 63 -2 54 -8 -5 -9 -2 -4 12 14 34 19 61 8
46 -7 -11 -14 -7 -30 14 -17 24 -22 26 -36 15 -10 -9 -16 -9 -16 -3 0 6 -6 10
-12 8 -7 -3 -25 -7 -40 -10 -23 -5 -25 -3 -21 17 7 28 -9 14 -32 -28 l-17 -30
7 48 c6 46 6 48 -14 38 -26 -14 -31 -14 -27 2 1 6 1 9 -1 5 -3 -5 -13 -8 -23
-8 -13 0 -17 -5 -13 -20 4 -15 0 -20 -15 -20 -11 0 -34 -16 -51 -35 -17 -19
-37 -35 -46 -35 -11 0 -15 -11 -15 -39 0 -30 -8 -47 -34 -76 -31 -33 -36 -35
-56 -23 -18 10 -24 10 -27 1 -3 -7 -11 -13 -18 -13 -7 0 -16 6 -18 13 -4 7 -6
6 -6 -4 -1 -9 6 -20 15 -23 28 -11 6 -23 -53 -29 -44 -5 -62 -2 -74 9 -13 11
-23 13 -36 6 -22 -12 -85 -4 -95 12 -5 8 -15 8 -37 -1 -24 -8 -34 -8 -50 4
-12 8 -25 11 -31 8 -5 -3 -17 3 -27 15 -21 24 -35 25 -80 4 -25 -13 -37 -14
-46 -5 -8 8 -8 14 0 22 6 6 9 18 6 25 -3 9 7 19 29 28 19 8 40 22 48 30 7 9
18 16 25 16 7 0 24 11 39 25 15 14 31 25 37 25 5 0 9 5 9 10 0 6 -8 10 -19 10
-10 0 -35 7 -56 15 -42 18 -72 12 -97 -20 -12 -15 -25 -21 -38 -18 -13 3 -20
0 -20 -8 0 -11 -2 -11 -10 1 -5 8 -10 10 -10 3 0 -12 -56 -37 -80 -34 -8 1
-51 -17 -95 -39 -44 -22 -97 -43 -118 -47 -35 -5 -64 -32 -50 -46 3 -4 1 -13
-6 -21 -9 -10 -9 -20 0 -40 7 -14 16 -26 20 -26 12 0 156 -100 176 -122 10
-12 13 -18 6 -15 -6 4 -15 2 -19 -4 -4 -7 -3 -9 3 -6 6 4 16 0 23 -8 36 -43
241 -101 415 -116 178 -16 735 22 896 60 65 15 80 16 100 5 33 -18 146 -18
165 0 7 8 17 16 21 18 11 4 76 98 68 98 -3 0 -17 -12 -31 -27 -14 -16 -24 -23
-22 -17 6 22 161 183 170 177 6 -3 -3 -19 -19 -37 -45 -49 -61 -75 -27 -43 17
15 33 27 37 27 5 0 17 9 29 20 20 18 23 19 40 3 10 -9 18 -12 19 -7 0 5 5 -2
10 -15 6 -15 15 -21 24 -17 8 3 15 1 15 -3 0 -5 22 -32 50 -59 27 -27 50 -47
50 -44 0 3 9 -3 20 -13 11 -10 20 -24 20 -32 0 -7 4 -13 8 -13 5 0 14 -16 22
-35 8 -19 18 -35 22 -35 5 0 7 -4 3 -9 -3 -5 -1 -12 4 -15 5 -3 5 -21 1 -41
-5 -24 -4 -35 4 -35 16 0 32 12 40 30 3 8 3 4 0 -10 -3 -14 -7 -41 -8 -60 -2
-30 -7 -38 -41 -55 -51 -24 -154 -33 -166 -14 -11 17 -2 61 14 71 7 4 22 8 33
8 12 0 32 9 45 19 l24 19 -30 1 c-66 1 -69 1 -56 14 16 16 14 30 -3 24 -11 -4
-13 -1 -9 10 5 12 2 15 -10 10 -9 -3 -19 -2 -22 4 -4 6 -13 6 -23 0 -12 -7
-22 -5 -34 6 -17 15 -63 21 -74 10 -3 -3 -2 -11 2 -19 4 -7 8 -45 9 -85 0 -52
-3 -67 -9 -53 -5 11 -13 20 -17 20 -5 0 -7 6 -5 13 1 6 1 9 -1 5 -8 -14 -24
-8 -48 18 -14 15 -25 35 -25 45 0 19 -19 22 -31 5 -4 -5 -12 1 -19 13 -6 12
-22 26 -36 31 -14 6 -22 15 -19 20 9 14 -20 23 -51 16 -17 -5 -24 -12 -20 -21
8 -22 -8 -18 -38 10 -17 16 -38 25 -59 25 l-32 -1 30 -13 c17 -7 37 -21 45
-31 14 -17 14 -17 -18 -1 -34 18 -42 4 -12 -22 13 -10 11 -11 -12 -6 -23 5
-28 3 -28 -13 0 -25 10 -35 24 -23 8 6 12 3 12 -11 0 -11 -5 -18 -12 -15 -7 3
-18 -2 -24 -9 -7 -8 -16 -13 -20 -10 -4 3 -8 -15 -8 -40 -1 -24 3 -47 9 -50 5
-4 7 -11 3 -16 -3 -6 8 -29 26 -52 30 -41 30 -40 -12 5 -52 57 -102 73 -113
38 -5 -16 -1 -26 14 -36 46 -33 13 -64 -68 -64 -32 0 -55 -6 -65 -16 -9 -8
-16 -11 -16 -5 0 6 -19 11 -43 11 -33 0 -49 6 -67 25 -20 21 -22 28 -12 50 9
19 19 25 44 25 67 0 78 8 78 54 0 23 9 59 20 81 11 21 18 40 16 42 -2 3 -30 1
-62 -4 -57 -8 -60 -10 -81 -51 -28 -57 -42 -72 -63 -72 -9 0 -59 -20 -111 -44
-52 -24 -116 -51 -144 -60 -38 -12 -441 -86 -471 -86 -16 0 5 -46 29 -64 24
-18 41 -20 122 -19 70 1 97 -2 106 -13 6 -8 30 -14 53 -14 52 0 60 -6 76 -53
7 -24 21 -42 35 -47 13 -5 26 -19 30 -32 12 -39 25 -49 46 -37 18 9 18 12 4
32 -19 27 -19 56 -1 76 8 9 18 32 23 51 6 24 16 36 30 38 15 2 19 8 16 22 -4
15 -9 17 -23 10 -19 -10 -70 -14 -70 -5 0 15 42 44 67 46 30 3 84 -36 60 -44
-8 -2 -6 -10 6 -22 18 -17 18 -19 -9 -40 -41 -33 -18 -73 26 -45 11 7 12 10 2
10 -10 0 -9 4 3 16 13 14 30 15 101 9 71 -6 86 -10 95 -28 10 -17 8 -23 -15
-40 -32 -23 -33 -33 -3 -40 134 -30 186 -39 323 -57 193 -24 183 -24 177 -1
-7 28 28 45 53 26 18 -13 18 -14 -4 -44 l-23 -31 26 -10 c58 -22 73 -22 94 -1
12 12 21 27 21 34 0 7 -18 50 -40 96 -43 89 -45 96 -29 85 6 -3 4 8 -5 24 -20
39 -20 71 -1 78 29 12 9 112 -35 174 -25 36 -25 56 1 70 36 20 74 3 105 -46
15 -24 32 -44 36 -44 4 0 8 -7 8 -15 0 -11 13 -15 53 -15 31 0 61 -6 75 -16
25 -17 28 -13 10 17 -19 30 16 55 91 63 34 4 77 14 97 22 l35 15 -13 -23 c-7
-13 -11 -26 -10 -30 1 -5 -3 -8 -8 -8 -5 0 -9 -3 -8 -7 4 -12 -33 -64 -78
-110 -31 -32 -50 -43 -73 -43 -23 0 -29 4 -25 15 5 13 2 14 -22 5 -26 -10
-102 -7 -166 6 -29 6 -37 -6 -15 -24 15 -13 168 -53 223 -59 38 -4 44 -1 87
44 25 26 58 63 73 80 15 18 30 30 35 27 5 -3 6 3 2 13 -3 10 -3 15 2 11 4 -4
14 0 21 10 17 22 17 8 0 -48 -24 -79 -69 -163 -109 -203 -41 -41 -35 -40 -134
-25 -7 1 -13 5 -13 9 0 4 -24 20 -52 34 -29 15 -65 38 -80 52 -28 27 -58 26
-58 -1 0 -23 58 -73 136 -116 96 -54 152 -55 198 -7 17 18 40 52 51 75 11 23
23 42 28 42 4 0 7 9 7 21 0 11 4 18 9 14 5 -3 12 -1 16 5 3 5 12 10 18 10 7 0
4 -7 -6 -14 -20 -15 -32 -76 -16 -76 6 0 3 -8 -6 -17 -13 -13 -16 -28 -12 -62
3 -25 2 -38 -2 -27 -6 15 -10 11 -24 -26 -10 -26 -25 -46 -35 -47 -40 -6 -98
-5 -117 3 -11 4 -36 9 -55 11 -86 8 -146 18 -159 29 -12 9 -13 8 -8 -7 4 -10
7 -25 7 -33 0 -10 7 -13 24 -8 13 3 27 1 30 -5 4 -6 2 -11 -3 -11 -18 0 -12
-27 7 -36 9 -4 35 -9 57 -10 22 -1 47 -3 55 -4 8 0 29 2 45 6 l30 7 -20 -23
c-33 -37 -60 -42 -113 -21 -32 13 -54 16 -63 10 -10 -6 -10 -9 -1 -9 6 0 12
-5 12 -11 0 -8 -15 -10 -45 -7 -35 4 -45 2 -45 -9 0 -9 -6 -12 -17 -9 -10 3
-56 10 -103 15 -47 6 -184 22 -305 36 -368 43 -339 41 -326 18 10 -20 -4 -36
-88 -100 -14 -10 13 -12 55 -3 27 6 88 16 137 23 73 11 92 11 120 -1 l32 -14
-42 -13 c-23 -7 -61 -22 -85 -34 -25 -11 -50 -21 -56 -21 -7 0 -52 -19 -100
-42 -48 -22 -107 -43 -132 -46 -41 -4 -48 -1 -78 32 -18 20 -40 36 -50 36 -39
0 -109 58 -156 129 -26 40 -87 116 -135 169 -119 130 -203 259 -286 438 -39
82 -91 190 -116 239 -44 86 -48 92 -110 125 -35 20 -75 47 -89 60 -14 14 -47
43 -75 65 -27 22 -61 50 -74 62 -13 12 -68 44 -122 72 -95 50 -193 128 -262
209 -17 20 -77 80 -132 132 -55 52 -149 143 -210 201 -242 232 -272 259 -278
252 -4 -3 -7 1 -7 10 0 25 -10 21 -55 -20 l-40 -38 39 42 40 43 -31 32 c-16
18 -43 48 -58 65 -15 18 -50 44 -77 57 -46 23 -51 24 -68 9 -10 -9 -16 -21
-13 -26 4 -6 1 -7 -6 -2 -9 5 -10 10 -2 18 7 7 7 14 -1 24 -9 11 -7 12 8 7 18
-5 18 -4 -1 11 -11 9 -33 23 -48 31 -28 15 -29 15 -22 -5 7 -23 -4 -28 -23 -9
-8 8 -15 8 -29 -2 -15 -12 -16 -12 -6 0 7 8 13 20 13 27 0 18 -30 52 -62 69
l-27 14 1 -113z m58 23 c0 -5 -2 -10 -4 -10 -3 0 -8 5 -11 10 -3 6 -1 10 4 10
6 0 11 -4 11 -10z m75 -42 c14 -6 25 -19 25 -29 0 -24 -24 -15 -45 17 -18 27
-16 29 20 12z m-5 -48 c7 0 11 -3 7 -6 -11 -11 -47 7 -47 24 1 16 2 16 14 0 7
-10 19 -18 26 -18z m45 -59 c3 -6 -4 -8 -16 -6 -30 6 -37 15 -11 15 11 0 23
-4 27 -9z m65 -165 c0 -2 -9 -6 -20 -9 -11 -3 -18 -1 -14 4 5 9 34 13 34 5z
m-5 -36 c3 -6 -1 -7 -9 -4 -18 7 -21 14 -7 14 6 0 13 -4 16 -10z m-175 -10 c0
-5 -4 -10 -9 -10 -6 0 -13 5 -16 10 -3 6 1 10 9 10 9 0 16 -4 16 -10z m360 6
c0 -2 -8 -10 -17 -17 -16 -13 -17 -12 -4 4 13 16 21 21 21 13z m2507 -673 c7
-47 4 -77 -12 -92 -8 -8 -18 -11 -22 -7 -4 4 -1 11 7 16 8 6 11 10 6 10 -5 0
-16 -7 -25 -15 -48 -45 -78 -63 -91 -55 -12 7 -11 14 9 40 13 18 23 47 24 65
1 26 6 35 23 39 12 3 30 3 39 0 11 -5 18 0 22 15 7 27 14 21 20 -16z m263 -10
c0 -5 -8 -17 -17 -28 -14 -18 -15 -18 -9 -2 3 10 6 23 6 28 0 5 5 9 10 9 6 0
10 -3 10 -7z m-410 -63 c0 -5 -4 -10 -10 -10 -5 0 -10 5 -10 10 0 6 5 10 10
10 6 0 10 -4 10 -10z m526 -133 c-9 -13 -13 -27 -9 -30 3 -4 -1 -7 -10 -7 -9
0 -26 -13 -38 -30 -16 -21 -26 -27 -35 -19 -7 5 -14 6 -16 1 -5 -14 -48 -25
-48 -13 0 6 7 11 15 11 8 0 15 6 15 13 0 26 67 87 95 87 19 0 29 6 33 23 5 17
7 18 10 5 2 -9 -4 -28 -12 -41z m-206 -61 c0 -3 -4 -8 -10 -11 -5 -3 -10 -1
-10 4 0 6 5 11 10 11 6 0 10 -2 10 -4z m30 -30 c0 -3 -4 -8 -10 -11 -5 -3 -10
-1 -10 4 0 6 5 11 10 11 6 0 10 -2 10 -4z m950 -225 c0 -12 -2 -13 -8 -3 -5 7
-16 10 -25 6 -9 -3 -17 -2 -17 4 0 6 6 12 13 15 19 7 37 -4 37 -22z m-333 -93
c-3 -7 -5 -2 -5 12 0 14 2 19 5 13 2 -7 2 -19 0 -25z m-377 -8 c8 -5 13 -10
10 -11 -49 -10 -70 -9 -70 5 0 18 36 21 60 6z m305 -50 c3 -5 1 -10 -4 -10 -6
0 -11 5 -11 10 0 6 2 10 4 10 3 0 8 -4 11 -10z m1534 -136 c2 -2 -7 -4 -22 -4
-14 0 -29 5 -32 10 -6 10 42 4 54 -6z m-1774 -74 c38 -38 66 -72 63 -75 -3 -4
-16 8 -28 24 -13 19 -30 31 -44 31 -32 0 -93 26 -99 42 -6 17 11 48 26 48 7 0
44 -31 82 -70z m-830 -64 c0 -29 -20 -30 -33 -1 -11 25 -11 26 10 23 15 -2 23
-10 23 -22z m529 -46 c37 -14 34 -45 -5 -59 -68 -23 -181 -5 -161 25 6 9 53
24 117 38 11 2 21 4 22 5 1 0 13 -3 27 -9z m-1991 -87 c-7 -2 -19 -2 -25 0 -7
3 -2 5 12 5 14 0 19 -2 13 -5z m-354 -78 c79 -71 58 -108 -66 -119 -73 -6
-239 0 -270 9 -26 8 0 34 40 40 60 10 107 32 142 64 56 53 100 55 154 6z m839
2 c12 -14 5 -87 -9 -87 -15 0 -39 44 -39 72 0 21 5 28 19 28 10 0 23 -6 29
-13z m3158 -73 c-4 -9 -9 -15 -11 -12 -3 3 -3 13 1 22 4 9 9 15 11 12 3 -3 3
-13 -1 -22z m-3418 -59 c3 -3 -1 -5 -8 -5 -9 0 -8 -6 4 -19 19 -21 24 -55 12
-83 -12 -27 33 -23 73 6 32 24 32 25 12 36 -12 6 -21 20 -21 30 0 11 1 20 3
21 1 0 40 6 86 13 71 10 85 10 98 -2 8 -8 12 -21 9 -29 -3 -8 -6 -18 -6 -22 0
-4 -25 -7 -55 -7 -30 0 -60 -5 -67 -12 -9 -9 -8 -12 5 -12 19 0 94 -37 103
-51 3 -5 -6 -9 -20 -9 -19 0 -26 -5 -26 -20 0 -11 -6 -20 -14 -20 -7 0 -21
-15 -30 -32 -42 -81 -61 -108 -75 -109 -12 0 -12 -2 -3 -6 10 -4 8 -9 -7 -20
-12 -8 -21 -20 -21 -26 0 -26 -34 -35 -94 -25 -64 11 -91 32 -109 81 l-11 32
-8 -32 c-11 -41 -58 -74 -112 -80 -34 -4 -44 -2 -50 12 -9 24 10 43 47 47 40
4 55 32 60 115 5 71 28 109 85 145 27 16 32 24 20 26 -26 5 -34 43 -13 58 17
12 121 12 133 -1z m450 -17 c28 -28 -6 -54 -56 -41 -21 5 -30 32 -15 46 11 11
58 8 71 -5z m1460 -44 c54 -15 70 -34 27 -34 -19 0 -23 -4 -18 -17 5 -14 1
-15 -27 -10 -48 10 -161 68 -154 79 8 12 99 3 172 -18z m511 -111 c0 -120 -1
-126 -14 -88 l-13 40 -2 -50 c-2 -44 -3 -47 -10 -20 -4 17 -8 53 -8 80 -1 39
1 45 8 28 18 -46 30 -23 30 57 0 44 2 80 5 80 3 0 5 -57 4 -127z m-3119 92 c0
-8 -6 -15 -14 -15 -20 0 -29 17 -14 23 22 9 28 7 28 -8z m1080 -110 c0 -8 -4
-15 -10 -15 -5 0 -10 7 -10 15 0 8 5 15 10 15 6 0 10 -7 10 -15z m85 -35 c18
-8 17 -9 -7 -9 -16 -1 -28 4 -28 9 0 12 8 12 35 0z m-205 -15 c16 -20 1 -38
-23 -29 -17 6 -22 25 -10 37 10 11 19 8 33 -8z m504 -21 c7 -18 -19 -61 -46
-75 -27 -14 -35 15 -15 57 18 36 50 46 61 18z m3246 -5 c0 -4 -20 -7 -45 -7
-24 1 -42 5 -39 9 6 11 84 9 84 -2z m30 1 c0 -5 -5 -10 -11 -10 -5 0 -7 5 -4
10 3 6 8 10 11 10 2 0 4 -4 4 -10z m80 6 c0 -11 -19 -15 -25 -6 -3 5 1 10 9
10 9 0 16 -2 16 -4z m-1955 -17 c67 -19 70 -49 5 -49 -50 0 -70 8 -70 29 0 33
8 36 65 20z m2001 4 c-4 -5 -11 -8 -16 -8 -4 0 -16 -11 -27 -24 -14 -17 -25
-22 -41 -17 -12 4 -20 10 -18 14 2 4 -18 5 -45 4 -31 -3 -49 0 -49 7 0 7 25
11 68 10 37 0 61 -3 55 -6 -18 -7 -16 -23 2 -23 8 0 15 5 15 11 0 15 30 38 49
39 8 0 11 -3 7 -7z m58 -14 c38 5 51 -13 16 -22 -11 -3 -18 -1 -14 4 5 9 -9
13 -35 9 -13 -1 -13 1 -1 15 9 11 15 13 20 5 4 -7 10 -11 14 -11z m-334 -3 c0
-2 -7 -6 -15 -10 -8 -3 -15 -1 -15 4 0 6 7 10 15 10 8 0 15 -2 15 -4z m-5070
-32 c11 -12 10 -18 -3 -31 -8 -9 -23 -13 -31 -10 -19 8 -21 43 -3 50 20 9 24
8 37 -9z m3654 -48 c50 -46 60 -61 66 -99 3 -24 2 -55 -3 -68 l-8 -24 -15 28
c-8 15 -12 37 -9 47 4 12 2 20 -4 20 -6 0 -11 7 -11 15 0 8 -4 15 -10 15 -5 0
-10 5 -10 11 0 5 5 7 12 3 7 -4 8 -3 4 4 -11 18 -31 15 -50 -7 -11 -12 -14
-21 -7 -26 6 -3 11 -27 11 -52 0 -39 2 -44 15 -33 8 6 19 9 24 6 15 -10 2 -33
-21 -39 -11 -3 -17 -10 -13 -16 3 -6 3 -11 -2 -11 -16 1 -38 25 -41 45 -2 11
-16 31 -32 45 -26 22 -29 29 -23 68 3 23 10 45 14 48 5 3 9 14 9 24 0 14 33
50 45 50 1 0 27 -24 59 -54z m1529 47 c-7 -2 -21 -2 -30 0 -10 3 -4 5 12 5 17
0 24 -2 18 -5z m-3499 -40 c7 -25 0 -93 -12 -105 -15 -15 -35 47 -28 87 7 37
31 48 40 18z m189 -5 c2 -7 0 -21 -5 -32 -9 -17 -7 -18 18 -13 35 6 62 -2 42
-14 -8 -5 -10 -11 -3 -18 7 -7 38 1 95 24 100 41 116 42 154 10 29 -23 29 -25
17 -66 -15 -48 -8 -58 56 -81 18 -7 33 -18 33 -24 0 -25 -22 -25 -59 0 -58 40
-69 31 -15 -14 26 -21 59 -40 73 -42 27 -3 37 -24 22 -46 -6 -11 -14 -8 -36
12 -15 14 -38 26 -50 26 -13 0 -28 6 -35 14 -14 18 -133 59 -157 54 -11 -2 15
-20 67 -45 47 -23 99 -56 117 -72 18 -17 39 -31 47 -31 8 0 19 -6 23 -13 4 -7
19 -21 33 -30 19 -13 21 -17 7 -17 -9 0 -17 5 -17 10 0 6 -7 10 -16 10 -9 0
-28 6 -42 14 -77 41 -264 126 -278 126 -8 0 -30 11 -48 25 -18 14 -46 25 -63
25 -17 0 -38 8 -48 20 -10 11 -22 20 -26 20 -14 0 -78 45 -79 56 0 18 23 34
52 34 15 0 28 -4 28 -10 0 -5 9 -10 20 -10 21 0 38 40 25 60 -3 5 -3 19 0 30
7 22 41 27 48 8z m2682 -8 c-3 -5 -10 -10 -16 -10 -5 0 -9 5 -9 10 0 6 7 10
16 10 8 0 12 -4 9 -10z m-4336 -37 c24 -84 3 -105 -45 -47 -31 37 -33 38 -52
21 -24 -22 -59 -22 -71 1 -21 39 24 66 69 42 13 -7 21 -6 30 5 7 8 23 15 36
15 18 0 25 -8 33 -37z m1799 25 c-5 -15 -48 -24 -48 -10 0 14 12 22 33 22 10
0 17 -5 15 -12z m-548 -14 c0 -9 -7 -14 -17 -12 -25 5 -28 28 -4 28 12 0 21
-6 21 -16z m-171 -6 c-3 -27 2 -36 21 -41 35 -9 22 -25 -25 -33 -87 -13 -122
19 -75 66 22 22 82 28 79 8z m2818 -19 c10 -19 10 -25 -2 -32 -16 -9 -21 -37
-6 -37 13 0 2 -37 -15 -51 -11 -9 -15 -8 -20 4 -3 9 -12 13 -20 10 -8 -3 -14
-1 -14 5 0 16 43 92 52 92 4 0 8 5 8 11 0 7 -7 8 -17 4 -37 -14 -83 -16 -83
-2 0 23 13 28 60 24 35 -3 48 -9 57 -28z m673 -14 c0 -8 -4 -15 -10 -15 -5 0
-10 7 -10 15 0 8 5 15 10 15 6 0 10 -7 10 -15z m-4380 -31 c0 -9 -7 -14 -17
-12 -25 5 -28 28 -4 28 12 0 21 -6 21 -16z m3240 2 c0 -3 -4 -8 -10 -11 -5 -3
-10 -1 -10 4 0 6 5 11 10 11 6 0 10 -2 10 -4z m-2960 -26 c0 -5 -4 -10 -10
-10 -5 0 -10 5 -10 10 0 6 5 10 10 10 6 0 10 -4 10 -10z m2260 -34 c66 -19
100 -41 100 -66 0 -10 3 -21 8 -24 4 -2 6 -25 4 -49 -3 -33 -8 -44 -17 -41 -7
3 -16 0 -21 -7 -4 -8 -3 -10 5 -5 8 6 10 -4 5 -35 -6 -33 -4 -40 6 -34 9 5 11
4 6 -4 -14 -22 -25 -1 -32 59 l-6 59 -31 -15 c-17 -9 -56 -19 -88 -21 l-58 -6
6 -30 c5 -27 4 -29 -13 -22 -10 4 -41 10 -69 13 -69 7 -84 28 -71 99 9 49 12
54 31 49 12 -3 25 -2 29 2 4 4 12 8 17 8 5 1 13 2 17 3 5 0 16 17 25 36 17 36
49 57 77 50 8 -2 40 -10 70 -19z m-1226 5 c8 -12 -41 -54 -53 -46 -18 11 -12
31 12 43 28 13 35 14 41 3z m821 -3 c-11 -6 -28 -21 -37 -32 -22 -26 -24 -8
-2 22 8 12 25 22 37 22 21 -1 22 -1 2 -12z m1935 -8 c12 -8 11 -10 -7 -10 -12
0 -25 5 -28 10 -8 13 15 13 35 0z m-4340 -20 c0 -5 -5 -10 -11 -10 -5 0 -7 5
-4 10 3 6 8 10 11 10 2 0 4 -4 4 -10z m1115 -29 c1 -26 20 -41 56 -41 29 0 49
-17 49 -42 0 -13 8 -18 31 -18 35 0 69 -16 69 -31 0 -12 -26 -9 -110 15 -68
20 -129 20 -157 1 -18 -13 -22 -12 -38 5 -16 18 -15 19 25 40 45 23 58 43 41
63 -8 10 -7 17 1 25 17 17 33 9 33 -17z m1206 -4 c-10 -26 -29 -43 -38 -33 -5
5 39 66 45 61 1 -1 -2 -14 -7 -28z m-863 8 c13 -10 39 -15 65 -14 23 2 51 -3
62 -9 18 -10 17 -11 -12 -12 -19 0 -43 -10 -60 -24 l-28 -25 39 -40 c22 -22
37 -43 34 -46 -3 -3 -21 12 -41 34 -33 36 -38 39 -77 34 -35 -5 -44 -11 -61
-44 -23 -45 -59 -71 -59 -41 0 24 69 90 106 102 l29 10 -27 -4 c-16 -2 -35 2
-44 9 -15 10 -15 14 0 42 14 27 27 39 46 42 3 1 15 -6 28 -14z m2972 5 c8 -5
11 -10 5 -10 -5 0 -17 5 -25 10 -8 5 -10 10 -5 10 6 0 17 -5 25 -10z m-4650
-30 c0 -5 -4 -10 -9 -10 -6 0 -13 5 -16 10 -3 6 1 10 9 10 9 0 16 -4 16 -10z
m4090 -14 c0 -2 -13 -9 -30 -15 -35 -12 -41 -5 -7 9 25 10 37 12 37 6z m113
-9 l32 4 -25 -14 c-30 -16 -50 -11 -49 12 0 9 3 11 5 5 2 -6 19 -9 37 -7z
m-975 -44 c2 -8 -6 -13 -22 -13 -26 0 -40 12 -29 24 11 11 46 2 51 -11z
m-1301 -1 c7 -5 16 -30 19 -58 3 -27 12 -64 20 -82 8 -18 12 -37 9 -42 -8 -12
36 -30 73 -30 15 0 50 11 77 25 28 13 56 25 63 25 6 0 12 7 12 15 0 19 56 49
66 34 9 -15 -60 -70 -116 -93 -25 -10 -60 -26 -78 -35 -27 -13 -34 -14 -41 -2
-5 8 -16 11 -30 6 -17 -5 -30 1 -56 29 -28 30 -34 43 -33 79 1 23 -4 56 -12
73 -19 45 -4 76 27 56z m-778 -38 c-27 -15 -89 -19 -73 -5 10 10 38 17 73 18
l24 1 -24 -14z m1451 12 c0 -2 -7 -9 -15 -16 -12 -10 -15 -10 -15 4 0 9 7 16
15 16 8 0 15 -2 15 -4z m-754 -70 c-8 -20 -19 -36 -23 -37 -4 0 -16 -2 -25 -4
-13 -2 -8 10 20 50 39 56 53 51 28 -9z m604 45 c0 -14 -18 -23 -30 -16 -6 4
-8 11 -5 16 8 12 35 12 35 0z m-1230 -11 c0 -5 -2 -10 -4 -10 -3 0 -8 5 -11
10 -3 6 -1 10 4 10 6 0 11 -4 11 -10z m1375 -20 c-10 -11 -21 -17 -24 -14 -3
3 3 12 13 20 28 20 32 17 11 -6z m-1535 -30 c0 -16 -5 -30 -11 -30 -5 0 -7 4
-4 10 3 5 0 8 -7 6 -7 -3 -25 -7 -41 -10 -27 -6 -27 -6 -10 15 16 19 46 37 66
38 4 1 7 -12 7 -29z m1550 -55 c-18 -22 -27 -19 -34 11 -5 18 -2 32 11 46 18
20 18 20 27 -11 6 -21 5 -35 -4 -46z m-1400 56 c0 -11 -26 -22 -34 -14 -12 12
-5 23 14 23 11 0 20 -4 20 -9z m699 -129 c34 -13 74 -22 89 -20 19 2 27 -2 27
-12 0 -16 -9 -16 -103 -4 -46 6 -52 5 -46 -10 8 -22 -16 -29 -51 -16 -25 9
-26 9 -15 -5 10 -13 9 -15 -9 -15 -11 0 -21 6 -21 14 0 8 -7 17 -16 20 -13 5
-10 12 15 43 30 36 41 60 22 48 -5 -3 -19 7 -30 21 -36 46 -23 47 28 2 28 -24
76 -53 110 -66z m581 67 c12 -23 20 -42 18 -42 -2 -1 -22 17 -44 40 -39 40
-40 43 -18 43 18 0 29 -10 44 -41z m2459 12 c11 -7 10 -11 -7 -20 -11 -6 -32
-11 -46 -11 -13 0 -37 -5 -53 -11 -15 -6 -122 -24 -238 -40 -115 -15 -268 -37
-340 -48 -192 -29 -206 -31 -200 -20 4 5 -5 9 -20 9 -28 0 -46 27 -25 40 7 4
40 11 74 14 33 4 75 11 91 16 17 6 48 12 70 14 22 2 69 9 104 16 43 7 67 8 74
1 6 -6 17 -7 26 -2 20 10 200 31 350 41 64 4 118 8 121 8 3 1 11 -2 19 -7z
m-2509 -21 c0 -5 -7 -10 -15 -10 -8 0 -15 5 -15 10 0 6 7 10 15 10 8 0 15 -4
15 -10z m1764 3 c8 -8 -83 -32 -123 -33 -45 0 -7 21 50 30 30 4 57 8 60 9 3 0
9 -2 13 -6z m786 -3 c0 -5 -4 -10 -10 -10 -5 0 -10 5 -10 10 0 6 5 10 10 10 6
0 10 -4 10 -10z m-2230 -20 c0 -5 -4 -10 -10 -10 -5 0 -10 5 -10 10 0 6 5 10
10 10 6 0 10 -4 10 -10z m197 -10 c14 -21 11 -24 -29 -34 -16 -3 -28 -10 -28
-15 0 -5 -15 -4 -34 1 -45 14 -37 34 23 52 25 8 48 15 51 15 3 1 11 -8 17 -19z
m-767 -37 c0 -12 -33 -43 -47 -43 -17 0 -17 10 4 32 16 18 43 25 43 11z m1610
-19 c0 -8 -4 -14 -10 -14 -5 0 -10 9 -10 21 0 11 5 17 10 14 6 -3 10 -13 10
-21z m-1410 6 c-8 -5 -46 -9 -85 -9 -53 1 -63 3 -40 9 46 12 143 12 125 0z
m1532 1 c26 14 45 -3 23 -21 -18 -15 -20 -37 -2 -43 6 -2 10 -7 7 -9 -10 -11
-52 13 -57 32 -3 11 -12 21 -19 21 -8 1 -18 3 -24 4 -5 1 -13 3 -16 4 -3 0 -3
5 1 10 3 6 18 6 36 1 20 -6 39 -6 51 1z m118 -61 c-8 -5 -24 -9 -35 -9 l-20 0
20 9 c11 5 27 9 35 9 13 1 13 0 0 -9z m-1951 -16 c10 -9 -12 -17 -58 -20 -59
-4 -76 11 -29 24 29 9 75 6 87 -4z m441 -4 c0 -5 -4 -10 -10 -10 -5 0 -10 5
-10 10 0 6 5 10 10 10 6 0 10 -4 10 -10z m-664 -51 c3 -5 -6 -9 -20 -9 -16 0
-26 6 -26 14 0 15 36 11 46 -5z m584 -48 c0 -17 -53 -49 -72 -43 -5 1 -8 -3
-8 -9 0 -5 -4 -7 -10 -4 -5 3 -10 1 -10 -6 0 -7 -3 -10 -6 -6 -4 3 -19 0 -35
-8 -34 -18 -39 -18 -39 -3 0 6 3 8 7 5 3 -4 11 1 18 9 6 9 20 17 31 18 25 2
114 48 114 58 0 4 2 8 5 8 3 0 5 -8 5 -19z m570 -12 c0 -13 -37 -11 -46 3 -5
8 -2 9 9 5 10 -3 17 -2 17 4 0 6 5 7 10 4 6 -3 10 -10 10 -16z m-532 -3 c-7
-8 -15 -12 -17 -11 -5 6 10 25 20 25 5 0 4 -6 -3 -14z m103 -61 c8 -16 6 -15
-10 4 -12 13 -21 28 -21 35 0 12 14 -5 31 -39z m-121 31 c0 -3 -13 -11 -30
-20 -31 -15 -39 -9 -18 12 11 11 48 17 48 8z m1290 -2 c0 -3 -7 -12 -15 -21
-20 -19 -32 -9 -15 12 12 15 30 20 30 9z m-762 -26 c-7 -22 -142 -62 -144 -43
-1 6 28 20 65 32 78 26 84 27 79 11z m884 -22 c16 5 19 2 16 -17 -4 -33 -31
-35 -62 -6 -33 31 -33 39 0 26 15 -5 35 -7 46 -3z m-91 -91 c0 -6 -10 -12 -23
-13 -19 -4 -20 -2 -9 12 15 17 33 18 32 1z m-133 -14 c3 -8 -1 -12 -9 -9 -7 2
-15 10 -17 17 -3 8 1 12 9 9 7 -2 15 -10 17 -17z m422 -56 l25 -15 -30 6 c-33
7 -58 24 -34 24 7 -1 25 -7 39 -15z"/>
<path d="M1280 2712 c0 -5 7 -13 16 -16 10 -4 14 -1 12 6 -5 15 -28 23 -28 10z"/>
<path d="M1220 2615 c-16 -50 -9 -60 23 -31 32 30 34 42 8 56 -17 9 -21 5 -31
-25z"/>
<path d="M3867 2413 c-4 -6 0 -16 8 -23 21 -17 28 -8 11 15 -8 11 -15 14 -19
8z"/>
<path d="M2040 2321 c8 -5 26 -12 40 -16 22 -7 23 -6 11 9 -7 9 -25 16 -40 16
-19 -1 -22 -3 -11 -9z"/>
<path d="M2144 2275 c11 -8 27 -15 35 -15 13 1 12 4 -3 15 -11 8 -27 15 -35
15 -13 -1 -12 -4 3 -15z"/>
<path d="M3006 1940 c-11 -3 -15 -9 -10 -12 5 -3 18 -2 28 2 11 3 15 9 10 12
-5 3 -18 2 -28 -2z"/>
<path d="M1750 5176 c0 -2 8 -10 18 -17 15 -13 16 -12 3 4 -13 16 -21 21 -21
13z"/>
<path d="M1755 5100 c-3 -5 -1 -18 4 -27 9 -15 10 -14 9 10 -3 30 -4 32 -13
17z"/>
<path d="M1855 5096 c11 -9 27 -22 36 -30 9 -7 29 -16 45 -20 27 -6 27 -5 -6
12 -19 10 -48 26 -65 36 -21 13 -24 13 -10 2z"/>
<path d="M1850 5032 c0 -12 19 -26 26 -19 2 2 -2 10 -11 17 -9 8 -15 8 -15 2z"/>
<path d="M1996 5015 c-9 -26 -7 -32 5 -12 6 10 9 21 6 23 -2 3 -7 -2 -11 -11z"/>
<path d="M2060 4992 c0 -6 3 -18 6 -27 5 -13 8 -14 15 -3 6 9 9 9 9 1 0 -12
-54 -43 -76 -43 -14 0 -8 -36 9 -58 9 -11 6 -13 -11 -10 -11 1 -21 0 -22 -4
-1 -27 1 -28 19 -18 34 18 58 12 65 -15 5 -18 13 -25 30 -25 13 0 29 -6 36
-14 6 -8 18 -12 26 -9 8 3 17 -5 24 -21 14 -37 43 -35 34 2 -4 15 -11 30 -16
33 -5 3 -6 14 -2 25 6 16 5 17 -7 7 -15 -15 -79 -17 -79 -3 0 5 10 15 22 21
21 11 21 12 -15 31 -38 19 -41 38 -7 38 10 0 23 7 28 16 7 13 11 10 22 -15 7
-18 17 -28 23 -24 6 4 24 7 39 8 24 1 26 -1 15 -14 -6 -9 -16 -19 -22 -23 -6
-5 -5 -8 3 -8 6 0 12 -6 12 -14 0 -7 7 -19 15 -26 19 -16 19 -35 -1 -54 -14
-15 -14 -16 5 -16 11 0 23 5 26 10 20 32 85 -21 85 -69 0 -12 5 -21 11 -21 6
0 17 -7 26 -15 8 -8 19 -12 24 -9 6 3 2 12 -8 19 -23 17 -15 25 15 14 17 -6
22 -14 18 -27 -4 -10 1 -27 9 -38 14 -19 14 -18 15 4 0 30 14 28 31 -5 l13
-28 4 33 c2 18 -2 39 -8 47 -8 10 -8 15 0 20 7 4 14 -2 17 -14 5 -20 14 -25
41 -22 6 1 12 -3 12 -9 0 -5 7 -10 15 -10 8 0 15 -7 15 -16 0 -11 -6 -15 -20
-11 -13 3 -20 0 -20 -9 0 -8 8 -14 19 -14 24 0 45 -25 37 -45 -3 -8 -1 -15 5
-15 6 0 13 9 16 20 9 32 26 18 43 -34 11 -35 19 -46 32 -42 9 2 19 -1 22 -8 3
-7 8 -6 15 4 7 10 6 19 -2 28 -9 12 -8 13 8 10 11 -2 19 -10 18 -16 -2 -7 9
-12 27 -12 23 0 30 4 30 20 0 25 18 26 36 3 10 -15 15 -16 26 -5 11 11 10 12
-4 7 -11 -4 -18 -2 -18 4 0 12 11 14 34 5 9 -3 13 -11 10 -16 -4 -6 -1 -9 7
-6 8 3 43 -10 78 -29 35 -18 66 -31 68 -29 5 4 -61 46 -72 46 -5 0 -16 6 -24
14 -9 8 -61 38 -116 67 -129 68 -250 144 -405 255 -153 110 -216 148 -231 138
-7 -4 -9 -3 -5 4 6 9 -23 26 -49 27 -5 0 -21 8 -36 18 -31 21 -89 33 -89 19z
m88 -30 c12 -8 22 -16 22 -18 0 -9 -18 -2 -55 22 -28 18 -33 23 -15 18 14 -4
35 -14 48 -22z m-13 -22 c3 -5 2 -10 -4 -10 -5 0 -13 5 -16 10 -3 6 -2 10 4
10 5 0 13 -4 16 -10z m75 0 c12 -8 11 -10 -7 -10 -13 0 -23 5 -23 10 0 13 11
13 30 0z m69 -89 c7 -5 10 -14 7 -20 -4 -6 -12 -9 -17 -5 -5 3 -6 10 -3 16 5
8 1 9 -10 5 -10 -4 -15 -3 -11 3 8 12 16 12 34 1z m451 -341 c0 -5 -4 -10 -10
-10 -5 0 -10 5 -10 10 0 6 5 10 10 10 6 0 10 -4 10 -10z"/>
<path d="M0 4981 c0 -5 7 -12 16 -15 14 -5 15 -4 4 9 -14 17 -20 19 -20 6z"/>
<path d="M1980 4960 c0 -5 5 -10 11 -10 5 0 7 5 4 10 -3 6 -8 10 -11 10 -2 0
-4 -4 -4 -10z"/>
<path d="M1935 4950 c-3 -5 -1 -10 4 -10 6 0 11 5 11 10 0 6 -2 10 -4 10 -3 0
-8 -4 -11 -10z"/>
<path d="M2140 4879 c0 -5 5 -7 10 -4 6 3 10 8 10 11 0 2 -4 4 -10 4 -5 0 -10
-5 -10 -11z"/>
<path d="M0 4760 c0 -5 5 -10 11 -10 5 0 7 5 4 10 -3 6 -8 10 -11 10 -2 0 -4
-4 -4 -10z"/>
<path d="M36 4655 c4 -8 10 -12 15 -9 11 6 2 24 -11 24 -5 0 -7 -7 -4 -15z"/>
<path d="M706 4251 c-4 -7 -5 -15 -2 -18 9 -9 19 4 14 18 -4 11 -6 11 -12 0z"/>
<path d="M2705 4210 c-3 -5 -1 -10 4 -10 6 0 11 5 11 10 0 6 -2 10 -4 10 -3 0
-8 -4 -11 -10z"/>
<path d="M2607 4164 c-16 -34 -16 -54 2 -54 5 0 12 15 17 32 6 19 20 38 34 45
l25 13 -31 0 c-25 0 -33 -6 -47 -36z"/>
<path d="M3396 4185 c4 -9 0 -15 -10 -15 -30 0 -16 -19 19 -26 19 -3 33 -10
30 -14 -3 -4 6 -7 20 -7 14 0 22 3 20 7 -3 5 11 7 30 5 l34 -3 -16 24 c-21 33
-44 44 -92 44 -32 0 -39 -3 -35 -15z"/>
<path d="M1418 4094 c12 -8 27 -12 33 -8 14 8 -8 24 -36 24 -18 0 -18 -1 3
-16z"/>
<path d="M3468 4093 c6 -2 18 -2 25 0 6 3 1 5 -13 5 -14 0 -19 -2 -12 -5z"/>
<path d="M1565 4060 c-8 -13 5 -13 25 0 13 8 13 10 -2 10 -9 0 -20 -4 -23 -10z"/>
<path d="M3576 4052 c-3 -5 1 -9 9 -9 8 0 12 4 9 9 -3 4 -7 8 -9 8 -2 0 -6 -4
-9 -8z"/>
<path d="M763 3947 c-25 -37 -198 -468 -206 -512 -2 -16 -17 -61 -32 -100 -15
-38 -37 -98 -49 -133 -22 -60 -57 -115 -42 -65 4 12 4 33 1 46 -6 23 -11 25
-43 21 -145 -19 -234 -39 -334 -76 l-58 -20 0 -83 0 -83 43 10 c23 5 51 14 62
18 34 14 86 28 183 49 69 15 98 26 112 43 19 23 25 16 21 -19 -1 -9 6 -8 26 2
15 8 38 15 49 15 12 0 27 7 34 15 7 8 28 15 47 15 19 0 43 5 53 10 11 6 86 20
167 30 82 11 157 24 167 28 26 11 -183 49 -324 59 l-105 8 3 33 c5 43 42 149
65 184 10 14 38 78 62 140 24 63 61 155 83 204 35 79 60 194 43 194 -3 0 -16
-15 -28 -33z"/>
<path d="M5600 3935 l-25 -14 33 -1 c22 0 32 5 32 15 0 18 -8 18 -40 0z"/>
<path d="M5522 3870 c-77 -9 -92 -20 -26 -20 55 0 81 -15 63 -37 -7 -8 -33
-13 -68 -13 -31 0 -81 -3 -111 -7 -55 -7 -54 -7 80 -29 74 -12 145 -25 158
-29 22 -7 22 -6 22 69 l0 76 -27 -1 c-16 -1 -56 -5 -91 -9z"/>
<path d="M4334 3809 c-10 -16 11 -31 37 -27 l23 3 -26 17 c-18 12 -29 14 -34
7z"/>
<path d="M4505 3799 c-8 -13 -6 -15 23 -23 26 -9 32 18 6 28 -21 8 -22 8 -29
-5z"/>
<path d="M4515 3690 c-3 -6 3 -10 14 -10 12 0 21 -4 21 -10 0 -5 -10 -10 -22
-10 -13 0 -30 -5 -38 -11 -12 -8 -9 -9 13 -5 18 4 33 1 42 -8 13 -12 9 -14
-28 -10 -23 2 -34 1 -24 -2 9 -3 15 -10 12 -15 -4 -5 3 -9 14 -9 12 0 21 -5
21 -11 0 -6 11 -9 25 -7 14 2 25 7 25 11 -1 14 30 38 40 32 16 -10 12 -33 -7
-38 -17 -4 -17 -5 0 -6 19 -1 24 -21 5 -21 -43 0 27 -13 212 -40 272 -39 736
-108 773 -115 27 -4 27 -4 27 52 0 41 -5 60 -17 70 -17 14 -17 14 0 9 9 -3 17
-1 17 4 0 5 -42 31 -92 58 l-93 49 -305 23 c-373 27 -626 35 -635 20z m960
-70 c21 -14 25 -20 13 -20 -10 0 -27 9 -38 20 -26 26 -14 26 25 0z m95 -60 c0
-15 -7 -12 -37 16 l-28 27 33 -17 c17 -9 32 -21 32 -26z"/>
<path d="M5600 3685 c-31 -17 -44 -19 -34 -3 4 7 3 8 -5 4 -6 -4 -9 -11 -6
-16 3 -5 -3 -13 -12 -19 -10 -5 -14 -13 -10 -17 4 -5 16 -3 25 4 9 7 32 20 50
29 17 9 32 20 32 25 0 11 -11 9 -40 -7z"/>
<path d="M4408 3653 c12 -2 30 -2 40 0 9 3 -1 5 -23 4 -22 0 -30 -2 -17 -4z"/>
<path d="M3564 3635 c-9 -22 0 -38 21 -41 28 -4 55 14 55 36 0 16 -7 20 -35
20 -22 0 -38 -6 -41 -15z"/>
<path d="M5606 3617 c-17 -13 -17 -14 8 -30 l26 -17 0 30 c0 33 -7 37 -34 17z"/>
<path d="M4428 3583 c7 -3 16 -2 19 1 4 3 -2 6 -13 5 -11 0 -14 -3 -6 -6z"/>
<path d="M4510 3570 c14 -4 36 -8 50 -8 22 0 22 1 -5 8 -16 4 -39 8 -50 8 -16
0 -15 -2 5 -8z"/>
<path d="M3171 3524 c0 -11 3 -14 6 -6 3 7 2 16 -1 19 -3 4 -6 -2 -5 -13z"/>
<path d="M4483 3513 c9 -2 23 -2 30 0 6 3 -1 5 -18 5 -16 0 -22 -2 -12 -5z"/>
<path d="M2330 2983 c0 -13 39 -73 78 -120 26 -30 53 -49 91 -64 67 -25 96
-19 104 18 8 38 48 96 75 108 36 16 26 25 -28 25 -43 0 -179 17 -287 35 -18 3
-33 2 -33 -2z"/>
<path d="M1040 2953 c0 -6 5 -15 10 -18 6 -3 10 -11 10 -16 0 -6 -4 -8 -8 -5
-5 3 -9 -1 -9 -9 0 -8 6 -15 13 -15 21 0 24 28 4 52 -11 13 -19 18 -20 11z"/>
<path d="M2743 2933 c9 -2 23 -2 30 0 6 3 -1 5 -18 5 -16 0 -22 -2 -12 -5z"/>
<path d="M206 2895 c-11 -8 -32 -15 -47 -15 -15 0 -30 -4 -34 -10 -3 -5 -33
-19 -65 -31 -50 -18 -60 -26 -60 -45 0 -13 4 -24 8 -24 5 0 58 16 118 35 89
28 114 40 132 64 12 17 22 33 22 36 0 11 -56 4 -74 -10z"/>
<path d="M1030 2800 c0 -5 5 -10 10 -10 6 0 10 5 10 10 0 6 -4 10 -10 10 -5 0
-10 -4 -10 -10z"/>
<path d="M816 2691 c5 -5 28 -12 52 -16 32 -5 42 -4 42 7 0 9 -16 14 -52 15
-29 1 -47 -1 -42 -6z"/>
<path d="M740 2561 c-52 -7 -43 -19 10 -15 19 2 61 5 92 7 32 2 61 7 65 10 7
8 -102 7 -167 -2z"/>
<path d="M690 2332 c0 -5 7 -16 16 -23 14 -12 16 -11 13 5 -4 20 -29 35 -29
18z"/>
<path d="M4415 2320 c-3 -5 1 -10 9 -10 8 0 18 5 21 10 3 6 -1 10 -9 10 -8 0
-18 -4 -21 -10z"/>
<path d="M4437 2303 c-6 -6 -28 -10 -66 -12 -8 -1 -11 -8 -8 -20 3 -13 0 -18
-8 -15 -7 3 -15 1 -18 -3 -11 -18 32 -11 49 8 10 11 20 15 23 10 3 -5 19 2 34
15 16 14 22 24 14 24 -7 0 -17 -3 -20 -7z"/>
<path d="M215 2160 c-3 -5 -20 -10 -38 -10 l-31 0 32 -33 c18 -18 32 -35 32
-37 0 -3 -37 -6 -81 -7 -132 -2 -129 -1 -129 -87 l0 -73 38 8 c82 18 162 52
162 69 0 9 12 27 26 39 25 22 25 23 7 37 -10 9 -12 12 -5 9 11 -6 12 -3 2 15
-10 18 -9 24 7 36 10 7 23 14 28 14 11 1 -24 30 -36 30 -4 0 -11 -4 -14 -10z"/>
<path d="M4194 2162 c2 -4 -12 -7 -32 -5 l-37 2 38 -10 c43 -13 82 -5 57 11
-18 12 -33 13 -26 2z"/>
<path d="M3872 2120 c23 -14 136 -50 157 -49 10 0 7 4 -9 11 -14 6 -40 17 -58
25 -43 19 -115 29 -90 13z"/>
<path d="M427 2095 c-12 -14 -38 -43 -58 -63 l-36 -37 31 -25 c16 -14 31 -23
32 -20 1 3 14 -6 28 -19 15 -14 38 -25 51 -24 73 3 71 1 34 32 -18 17 -31 33
-27 36 4 4 26 -11 50 -32 24 -22 56 -49 72 -61 l29 -22 -34 -7 c-32 -7 -31 -8
31 -20 36 -6 76 -12 90 -12 23 0 24 1 8 13 -10 7 -18 23 -18 35 0 25 -7 26
-32 4 -18 -16 -21 -14 -76 43 -65 69 -130 120 -139 110 -8 -7 -33 13 -33 26 0
6 6 8 14 5 9 -4 12 0 9 12 -2 10 3 25 12 35 15 14 15 16 0 16 -8 0 -26 -11
-38 -25z"/>
<path d="M3508 2083 c7 -3 16 -2 19 1 4 3 -2 6 -13 5 -11 0 -14 -3 -6 -6z"/>
<path d="M3636 2063 c-4 -9 -1 -20 6 -25 22 -13 28 -9 26 17 -3 28 -23 34 -32
8z"/>
<path d="M3810 2066 c0 -2 7 -7 16 -10 8 -3 12 -2 9 4 -6 10 -25 14 -25 6z"/>
<path d="M3691 2053 c0 -5 4 -17 8 -28 8 -19 8 -19 15 2 6 19 11 21 26 13 10
-6 25 -10 32 -10 17 1 -50 30 -68 30 -8 0 -14 -3 -13 -7z"/>
<path d="M5623 1918 c-6 -24 -12 -49 -14 -57 -2 -8 4 -17 14 -19 15 -3 17 5
17 57 0 34 -1 61 -3 61 -2 0 -8 -19 -14 -42z"/>
<path d="M381 1901 c-20 -13 3 -23 34 -15 14 3 25 10 25 15 0 11 -41 11 -59 0z"/>
<path d="M914 1857 c-1 -21 7 -25 82 -46 46 -13 84 -27 84 -32 0 -5 7 -9 15
-9 8 0 15 -4 15 -10 0 -5 8 -10 18 -10 11 1 -1 17 -37 50 -39 34 -71 53 -111
64 -70 20 -65 20 -66 -7z"/>
<path d="M140 1792 c-30 -16 -74 -40 -97 -53 l-43 -24 0 -517 c0 -435 2 -518
14 -518 8 0 51 11 97 24 46 13 127 36 179 50 52 13 156 41 230 61 74 20 194
52 265 71 171 45 220 70 284 143 59 69 115 95 221 104 58 6 63 5 46 -8 -11 -8
-30 -15 -44 -15 -13 0 -20 -4 -17 -10 7 -11 -39 -25 -53 -16 -11 7 -92 -68
-92 -86 0 -16 32 -37 74 -49 46 -13 103 7 155 55 25 24 54 46 63 49 21 8 34
-11 19 -26 -6 -6 -11 -18 -11 -27 0 -9 -11 -27 -25 -40 -14 -13 -25 -20 -25
-17 0 4 -11 0 -25 -9 -17 -11 -34 -14 -56 -9 -22 5 -29 4 -25 -4 5 -7 -3 -11
-21 -11 -16 0 -34 -5 -40 -11 -6 -6 -42 -14 -80 -17 -37 -3 -77 -11 -88 -17
-11 -7 -38 -16 -60 -19 -54 -10 -527 -135 -760 -202 -104 -31 -198 -58 -207
-60 -17 -5 -18 -26 -18 -266 0 -223 2 -259 14 -249 10 9 16 9 21 1 4 -7 -2
-14 -14 -17 -14 -3 -21 -13 -21 -29 l0 -24 818 0 c787 1 818 1 857 20 22 11
44 19 50 20 5 0 66 25 135 56 69 31 166 74 215 96 50 22 108 48 131 59 23 10
46 19 52 19 6 0 14 5 18 12 5 8 0 9 -14 6 -12 -4 -22 -2 -22 4 0 6 12 8 26 5
15 -3 52 6 87 19 67 26 96 47 56 39 -13 -3 -39 -8 -57 -11 -18 -4 -53 -1 -77
6 -42 12 -45 15 -45 46 0 55 64 111 157 139 22 6 22 5 6 -25 -8 -17 -30 -39
-49 -48 -26 -12 -34 -22 -34 -43 0 -44 64 -53 135 -19 62 29 78 45 70 70 -4
13 0 31 11 47 l17 27 18 -23 c30 -36 24 -69 -18 -108 -22 -21 -29 -31 -16 -24
12 6 25 16 28 21 4 6 11 8 16 4 6 -3 19 2 29 11 10 9 24 14 31 9 7 -4 10 -3 5
4 -8 13 29 26 45 16 7 -4 9 -3 6 3 -6 10 32 33 54 33 6 0 35 11 65 25 60 28
185 76 305 119 78 28 111 54 159 128 34 51 87 73 175 73 38 0 79 -4 90 -8 18
-8 17 -10 -14 -23 -18 -8 -52 -14 -75 -14 -32 0 -48 -6 -66 -25 -28 -29 -42
-25 -15 5 26 29 6 47 -25 22 -27 -22 -21 -57 13 -66 17 -5 19 -8 8 -15 -11 -7
-7 -13 18 -25 33 -17 116 -19 138 -3 7 5 20 6 31 3 10 -3 27 1 38 10 10 8 14
13 7 10 -6 -4 -14 -2 -17 3 -8 12 47 33 75 29 79 -11 -26 -85 -114 -79 -37 2
-161 -55 -151 -70 4 -8 -1 -9 -16 -4 -15 5 -28 1 -43 -13 -12 -11 -40 -23 -62
-26 -73 -12 -248 -78 -450 -168 -110 -49 -342 -153 -515 -230 -173 -77 -317
-142 -319 -144 -2 -2 231 -4 518 -4 377 0 520 3 515 11 -4 8 0 8 15 0 12 -7
27 -9 34 -4 8 5 4 9 -13 14 -22 6 -21 7 10 8 24 1 31 4 21 10 -14 9 -11 12 38
39 18 9 27 10 38 0 11 -9 16 -9 23 2 5 8 12 11 16 7 10 -10 -28 -38 -44 -32
-16 6 -52 -16 -52 -32 0 -6 -6 -14 -12 -16 -7 -3 112 -6 264 -6 l277 -1 108
74 c99 68 178 126 207 151 6 6 40 30 76 54 36 24 92 64 125 90 33 25 89 67
125 94 61 47 120 117 120 144 0 6 4 13 9 15 5 2 5 31 -1 68 -11 80 3 113 66
153 54 34 72 34 79 2 4 -24 -22 -56 -54 -67 -5 -2 -12 -26 -15 -54 -6 -50 -6
-51 30 -73 75 -46 170 -34 231 29 27 28 28 31 16 68 -25 75 1 103 48 53 22
-24 31 -46 37 -87 6 -49 4 -58 -17 -80 -36 -38 -87 -67 -109 -61 -12 3 -18 1
-14 -5 4 -6 1 -8 -7 -6 -8 3 -13 11 -12 17 6 23 -13 8 -97 -77 -47 -48 -99
-96 -115 -107 -16 -11 -67 -53 -113 -93 -47 -41 -90 -78 -96 -83 -6 -5 -54
-42 -106 -81 -52 -39 -113 -86 -135 -104 l-40 -34 296 0 296 0 44 44 c24 23
63 64 87 90 23 26 61 56 85 66 52 23 67 40 142 155 33 49 77 105 99 125 106
94 133 128 150 190 10 34 40 111 68 173 68 152 89 207 79 207 -5 0 -11 -5 -13
-12 -3 -9 -24 -9 -89 1 -46 6 -120 16 -164 21 -44 6 -107 17 -140 25 -33 8
-76 17 -95 20 -21 3 -42 15 -53 31 l-18 25 32 -6 c18 -3 35 -8 39 -10 12 -8
148 -19 220 -18 41 1 140 3 220 4 245 4 266 -14 216 -188 l-23 -82 93 -3 94
-3 0 151 0 151 -417 8 c-230 4 -442 8 -470 10 -49 2 -69 -7 -40 -18 21 -9 -36
-7 -76 2 -32 8 -45 5 -83 -16 -24 -14 -51 -22 -60 -19 -8 3 -12 2 -9 -4 3 -6
-1 -10 -10 -10 -9 0 -15 5 -13 12 6 16 68 48 95 48 12 0 25 5 28 10 8 13 -74
2 -92 -12 -14 -11 -100 0 -273 37 -69 15 -219 40 -335 56 -115 16 -232 33
-260 39 -27 5 -97 19 -155 30 -138 27 -130 25 -245 53 -55 13 -165 35 -245 48
-80 13 -137 25 -127 27 29 6 8 22 -26 21 -18 -1 -24 -3 -14 -6 9 -2 15 -8 12
-12 -2 -5 -51 0 -109 10 -139 23 -159 26 -241 34 -38 4 -77 11 -85 16 -10 6
-6 7 13 3 17 -4 27 -2 27 5 0 6 -19 11 -47 11 -27 0 -73 2 -103 5 -47 3 -44 2
20 -9 90 -16 48 -20 -69 -6 -80 9 -124 18 -356 75 -233 57 -420 91 -522 94
-13 1 -22 7 -20 14 1 9 -16 11 -68 10 -129 -4 -141 -7 -55 -13 l85 -6 -114 -2
c-99 -2 -112 0 -107 14 5 12 1 14 -17 8 -12 -4 -24 -10 -27 -14 -3 -4 -45 2
-95 12 -49 11 -130 26 -180 33 -76 10 -83 13 -45 15 l45 3 -60 8 c-92 12 -308
30 -312 25 -7 -6 145 -26 202 -26 30 0 55 -4 55 -9 0 -5 -17 -7 -37 -5 -258
27 -363 40 -388 48 -14 5 -39 -3 -75 -22z m1422 -430 c7 -5 24 -12 37 -14 38
-5 37 -52 -1 -89 -17 -16 -36 -29 -41 -29 -6 0 -29 -9 -51 -19 -68 -31 -141
-33 -197 -4 -33 18 -46 30 -42 40 3 8 0 19 -7 23 -21 13 64 90 100 90 16 0 31
4 35 10 7 12 151 6 167 -8z m312 -82 c14 -5 26 -14 26 -19 0 -11 -59 -20 -66
-9 -13 20 -124 -1 -124 -24 0 -15 48 -31 67 -23 15 7 13 9 -12 14 -30 7 -30 7
-8 19 18 10 33 10 73 0 l51 -13 -35 -34 -35 -34 -67 11 c-64 11 -104 32 -104
57 0 17 33 45 66 55 40 12 138 12 168 0z m148 -20 c62 0 57 -8 -14 -26 -29 -7
-43 -13 -30 -13 33 -1 18 -19 -23 -27 -49 -9 -53 -23 -7 -20 23 1 68 19 114
44 83 45 147 57 133 25 -5 -10 -13 -40 -19 -66 -9 -45 -12 -48 -36 -42 -14 3
-30 13 -36 21 -15 19 -52 26 -74 14 -10 -5 -51 -12 -91 -15 -40 -4 -76 -8 -81
-11 -4 -3 -13 -2 -19 2 -15 9 102 126 119 119 8 -3 37 -5 64 -5z m378 -35 c17
-9 30 -23 30 -32 0 -21 -29 -53 -48 -53 -14 0 -13 -21 4 -64 7 -19 -12 -21
-50 -6 -16 6 -28 20 -32 37 -11 45 -15 47 -38 19 -19 -25 -24 -26 -53 -15 -38
13 -36 20 28 93 41 47 44 48 86 42 24 -3 57 -13 73 -21z m237 -76 c44 -27 50
-49 19 -76 -31 -26 -113 -38 -192 -28 -55 7 -55 7 -40 28 9 12 30 45 48 73
l31 52 51 -15 c28 -8 65 -24 83 -34z m193 -44 c45 -15 45 -37 0 -50 -27 -7
-35 -15 -32 -28 3 -17 0 -18 -30 -12 -18 4 -37 14 -41 21 -7 12 -13 12 -38 -2
-16 -8 -39 -12 -50 -9 -17 6 -15 11 24 40 25 19 47 41 51 50 6 17 46 14 116
-10z m170 -34 c0 -5 -26 -25 -58 -45 -48 -29 -64 -34 -88 -27 l-29 8 55 36
c52 34 120 50 120 28z m1469 -17 c6 -6 -52 -54 -65 -54 -8 0 -14 -7 -14 -15 0
-11 -7 -14 -25 -9 -14 3 -35 6 -47 6 -43 -1 -263 -21 -343 -32 -44 -6 -138
-17 -210 -25 -178 -21 -283 -36 -695 -106 -195 -32 -378 -61 -408 -63 -30 -2
-57 -8 -61 -13 -3 -4 -19 -9 -36 -9 -45 -1 -94 -10 -102 -17 -3 -4 -24 -7 -45
-7 -27 0 -41 6 -50 20 -7 11 -16 20 -20 20 -10 0 -6 -23 6 -32 10 -6 -16 -38
-31 -38 -9 0 -36 39 -39 58 -1 6 8 12 20 12 42 0 177 39 206 60 15 11 30 16
32 10 9 -26 356 -3 389 26 19 17 33 18 23 2 -5 -8 2 -9 27 -4 92 19 198 36
228 36 19 0 43 7 53 17 11 9 18 11 18 5 0 -7 10 -12 23 -12 21 1 22 1 3 15
-19 14 -19 15 8 15 18 0 25 -4 20 -12 -5 -8 2 -9 27 -4 19 3 36 11 37 16 2 6
8 10 13 10 6 0 8 -4 5 -9 -9 -13 75 -1 101 15 17 10 23 11 26 1 3 -8 10 -6 22
8 10 13 15 15 12 5 -4 -12 3 -15 34 -12 25 3 39 9 39 18 0 8 5 14 11 14 5 0 7
-4 4 -10 -3 -5 3 -10 15 -10 12 0 19 4 15 9 -3 5 -1 12 4 15 5 3 11 -1 15 -9
4 -11 11 -13 28 -6 13 4 72 14 131 21 67 8 103 16 95 22 -8 4 0 5 20 2 21 -4
32 -3 32 5 0 6 5 11 11 11 5 0 7 -4 4 -10 -3 -5 -1 -10 4 -10 6 0 11 6 11 13
0 8 4 7 10 -3 8 -13 10 -13 10 -1 0 11 3 12 11 4 6 -6 27 -7 57 -2 26 4 94 10
151 12 92 3 100 2 75 -10 -16 -7 -21 -11 -11 -8 10 3 30 5 43 5 21 0 24 5 24
35 0 34 1 35 23 24 12 -6 24 -13 26 -15z m269 -2 c-26 -7 -47 -18 -45 -24 1
-6 -4 -13 -10 -15 -7 -3 -13 2 -13 10 0 8 -9 17 -20 20 -22 6 -23 3 -14 -30 4
-13 10 -21 14 -18 5 3 11 1 14 -3 8 -13 -38 -32 -54 -22 -7 4 -13 18 -14 31
-1 14 -11 28 -26 36 l-25 13 25 1 c52 1 126 9 160 17 54 13 61 -1 8 -16z
m-1659 8 c10 0 10 -5 -3 -25 -20 -30 -20 -30 39 -5 26 11 61 20 78 20 27 0 19
-6 -53 -40 -83 -39 -113 -46 -144 -34 -13 5 -12 12 7 50 17 36 26 44 42 40 11
-3 26 -6 34 -6z m281 -19 c44 -8 44 -9 -25 -11 -51 -2 -62 -4 -40 -9 25 -5 27
-8 12 -14 -10 -4 -32 -7 -48 -7 -16 0 -29 -5 -29 -11 0 -7 14 -10 35 -7 52 6
37 -16 -16 -24 -24 -3 -59 -4 -76 -1 l-33 5 47 44 c50 48 73 52 173 35z m1430
-16 c0 -6 -18 -16 -40 -23 -49 -15 -63 -15 -55 -1 4 6 13 8 21 5 9 -3 14 1 14
14 0 15 6 19 30 17 16 -1 30 -7 30 -12z m-235 -15 c-3 -5 -2 -10 2 -10 5 0 9
-9 10 -19 1 -13 -3 -18 -12 -14 -9 3 -13 14 -11 26 6 28 5 27 12 27 3 0 2 -4
-1 -10z m445 -10 c-8 -5 -22 -10 -30 -10 -13 0 -13 1 0 10 8 5 22 10 30 10 13
0 13 -1 0 -10z m164 -5 c-10 -8 -23 -14 -29 -14 -5 0 -1 6 9 14 11 8 24 15 30
15 5 0 1 -7 -10 -15z m-689 -5 c3 -5 -1 -10 -10 -10 -9 0 -13 5 -10 10 3 6 8
10 10 10 2 0 7 -4 10 -10z m-1230 -90 c-3 -5 -10 -10 -16 -10 -5 0 -9 5 -9 10
0 6 7 10 16 10 8 0 12 -4 9 -10z m-760 -38 c17 -11 15 -12 -20 -8 -22 3 -58 8
-80 11 -29 5 -52 1 -81 -12 -37 -17 -146 -21 -130 -5 30 30 267 41 311 14z
m425 -12 c0 -5 -5 -10 -11 -10 -5 0 -7 5 -4 10 3 6 8 10 11 10 2 0 4 -4 4 -10z
m-40 -4 c0 -3 -4 -8 -10 -11 -5 -3 -10 -1 -10 4 0 6 5 11 10 11 6 0 10 -2 10
-4z m-2040 -162 c-13 -13 -29 -24 -37 -24 -7 0 -13 -4 -13 -9 0 -5 -14 -14
-30 -21 -38 -16 -51 -57 -25 -77 28 -20 105 -16 142 7 18 11 41 36 50 56 22
44 50 65 62 46 11 -19 12 -87 1 -117 -6 -16 -17 -25 -31 -25 -22 0 -22 0 -3
22 l19 21 -25 -15 c-14 -8 -51 -23 -82 -32 -60 -19 -107 -63 -92 -88 4 -7 4
-10 -1 -6 -4 4 -28 -10 -53 -32 l-45 -40 -34 30 c-18 17 -41 30 -51 31 -10 0
-12 3 -4 6 6 2 12 13 12 24 0 16 5 18 28 13 15 -4 28 -11 30 -16 7 -16 40 -7
82 23 33 24 39 33 29 40 -8 5 -21 6 -30 3 -9 -2 -35 3 -58 12 -44 17 -51 37
-32 87 17 43 118 99 190 104 l23 2 -22 -25z m1406 2 c18 -18 18 -26 0 -26 -17
0 -38 24 -29 33 9 10 13 9 29 -7z m44 4 c0 -5 -5 -10 -11 -10 -5 0 -7 5 -4 10
3 6 8 10 11 10 2 0 4 -4 4 -10z m100 -20 c0 -5 -12 -10 -26 -10 -14 0 -23 4
-19 10 3 6 15 10 26 10 10 0 19 -4 19 -10z m1285 -10 c-4 -6 5 -10 20 -10 25
0 25 0 10 -30 -11 -21 -27 -32 -55 -40 -31 -8 -40 -16 -41 -33 0 -12 -2 -30
-4 -39 -4 -24 12 -34 70 -46 61 -13 150 -8 170 8 8 7 15 9 15 5 0 -4 14 6 30
23 17 18 30 43 30 56 0 19 4 23 19 19 24 -6 30 -39 13 -74 -13 -29 -67 -69
-119 -89 -18 -7 -33 -17 -33 -22 0 -5 6 -6 13 -2 7 4 9 3 4 -2 -5 -5 -10 -7
-12 -4 -1 3 -12 -3 -24 -14 -11 -10 -18 -22 -16 -26 6 -9 -19 -31 -37 -34 -8
-1 -29 -11 -48 -21 -48 -28 -106 -20 -102 12 2 12 -2 32 -9 44 -6 13 -14 38
-16 56 -5 32 -4 34 24 28 28 -5 28 -5 -4 10 -17 8 -34 24 -38 35 -8 25 3 80
16 80 6 0 8 4 5 9 -3 5 12 25 33 44 l39 35 -36 -5 c-45 -7 -39 2 14 21 46 17
78 20 69 6z m-133 -22 c-6 -6 -20 -13 -29 -14 -16 -2 -16 -1 1 12 24 17 45 19
28 2z m-1719 -106 c-10 -18 -30 -36 -45 -41 -16 -6 -29 -14 -29 -18 -1 -4 -3
-20 -4 -35 l-4 -26 62 5 c86 7 137 36 137 78 0 12 10 32 22 45 l21 23 20 -24
c32 -40 4 -139 -40 -139 -8 0 -11 -5 -7 -12 4 -6 3 -8 -3 -5 -19 12 -77 -20
-95 -51 -21 -36 -23 -46 -5 -36 6 4 3 -2 -7 -14 -11 -12 -22 -20 -25 -17 -2 3
-26 -15 -51 -40 -44 -44 -47 -45 -92 -39 -26 4 -49 13 -52 20 -4 10 27 79 49
112 1 1 16 4 33 6 61 8 95 46 41 46 -11 0 -33 7 -49 15 -41 21 -42 72 -2 116
23 25 129 75 140 65 1 -2 -5 -17 -15 -34z m-1076 -48 c-3 -3 -12 -4 -19 -1 -8
3 -5 6 6 6 11 1 17 -2 13 -5z m517 -28 c-16 -14 -39 -29 -51 -32 -24 -7 -38
-44 -20 -56 16 -12 87 0 115 18 12 8 22 23 22 34 0 21 34 45 51 34 17 -10 0
-76 -24 -94 -12 -8 -37 -15 -56 -16 -22 0 -40 -8 -51 -22 -36 -43 -67 -77 -87
-95 -19 -17 -22 -17 -62 5 -38 20 -40 23 -27 42 23 34 82 11 72 -27 -4 -17 -2
-17 21 4 14 13 33 36 44 50 l18 26 -47 1 c-35 0 -51 6 -64 22 -16 20 -16 24
-3 51 9 16 27 36 41 45 24 16 125 45 133 38 2 -2 -10 -14 -25 -28z m773 -1 c0
-8 -4 -12 -9 -9 -4 3 -8 9 -8 15 0 5 4 9 8 9 5 0 9 -7 9 -15z m1897 -30 c-15
-23 -34 -33 -34 -18 0 10 32 43 42 43 5 0 1 -11 -8 -25z m-2257 -82 c-3 -10
-5 -4 -5 12 0 17 2 24 5 18 2 -7 2 -21 0 -30z m-1511 -183 c9 0 12 -4 9 -10
-3 -5 -23 -10 -43 -10 -27 0 -33 -3 -24 -12 8 -8 6 -16 -10 -30 -24 -21 -64
-25 -52 -5 5 7 0 6 -11 -3 -16 -13 -18 -13 -13 0 2 9 21 17 44 20 26 3 35 8
26 13 -17 11 25 50 46 42 7 -3 20 -5 28 -5z"/>
<path d="M1395 1326 c-101 -44 -45 -110 68 -81 49 12 87 39 87 61 0 30 -102
43 -155 20z"/>
<path d="M2100 1210 c-13 -8 -13 -10 2 -10 9 0 20 5 23 10 8 13 -5 13 -25 0z"/>
<path d="M2317 1204 c-14 -14 -7 -25 13 -22 12 2 21 8 21 13 0 12 -24 18 -34
9z"/>
<path d="M2531 1110 c-28 -38 -27 -40 12 -40 55 0 77 38 33 58 -20 9 -26 7
-45 -18z"/>
<path d="M2760 1080 c-12 -8 -9 -10 13 -10 16 0 26 4 22 10 -8 12 -16 12 -35
0z"/>
<path d="M4278 1003 c7 -3 16 -2 19 1 4 3 -2 6 -13 5 -11 0 -14 -3 -6 -6z"/>
<path d="M2525 799 c-4 -5 -3 -9 2 -8 4 1 16 -1 26 -6 10 -4 20 -5 22 -3 3 3
-6 10 -20 16 -16 7 -26 8 -30 1z"/>
<path d="M673 395 c0 -8 4 -12 9 -9 5 3 6 10 3 15 -9 13 -12 11 -12 -6z"/>
<path d="M3650 610 c-24 -19 -24 -19 -2 -13 12 3 25 10 28 15 11 18 -1 17 -26
-2z"/>
<path d="M3646 420 c-14 -4 -10 -12 20 -40 26 -25 33 -29 25 -13 -9 18 -8 24
9 36 20 14 20 15 -8 19 -16 2 -37 2 -46 -2z"/>
<path d="M1787 373 c-9 -2 -15 -8 -12 -13 3 -5 -4 -18 -15 -28 -20 -18 -20
-20 -3 -26 13 -5 25 1 42 21 13 15 28 28 32 28 4 0 11 4 16 9 5 5 3 6 -4 2 -7
-4 -13 -2 -13 3 0 11 -11 12 -43 4z"/>
<path d="M308 1813 c12 -2 32 -2 45 0 12 2 2 4 -23 4 -25 0 -35 -2 -22 -4z"/>
<path d="M5580 1778 c-25 -5 -66 -6 -92 -3 -43 5 -48 4 -48 -14 0 -15 10 -23
43 -31 23 -7 61 -18 85 -26 68 -22 72 -21 72 36 0 28 -3 50 -7 49 -5 -1 -28
-5 -53 -11z"/>
<path d="M2379 1733 c-13 -16 -12 -17 4 -4 16 13 21 21 13 21 -2 0 -10 -8 -17
-17z"/>
<path d="M1363 1713 c9 -2 25 -2 35 0 9 3 1 5 -18 5 -19 0 -27 -2 -17 -5z"/>
<path d="M1424 1708 c-3 -4 19 -8 48 -7 57 1 55 5 -5 11 -21 2 -40 0 -43 -4z"/>
<path d="M1665 1670 c19 -8 73 -14 64 -6 -2 2 -22 6 -44 9 -28 5 -34 4 -20 -3z"/>
<path d="M5290 1660 c0 -5 7 -10 16 -10 8 0 12 5 9 10 -3 6 -10 10 -16 10 -5
0 -9 -4 -9 -10z"/>
<path d="M1748 1653 c6 -2 18 -2 25 0 6 3 1 5 -13 5 -14 0 -19 -2 -12 -5z"/>
<path d="M1845 1631 c29 -12 93 -22 75 -12 -8 5 -33 11 -55 15 -25 3 -33 3
-20 -3z"/>
<path d="M1960 1606 c0 -2 9 -6 20 -9 11 -3 18 -1 14 4 -5 9 -34 13 -34 5z"/>
<path d="M2146 1560 c5 -5 24 -11 43 -14 19 -2 30 -1 25 4 -5 5 -24 11 -43 14
-19 2 -30 1 -25 -4z"/>
<path d="M2460 1521 c24 -9 147 -15 139 -7 -2 2 -40 6 -84 9 -50 4 -71 3 -55
-2z"/>
<path d="M2635 1500 c19 -8 73 -14 64 -6 -2 2 -22 6 -44 9 -28 5 -34 4 -20 -3z"/>
<path d="M2933 1453 c9 -2 23 -2 30 0 6 3 -1 5 -18 5 -16 0 -22 -2 -12 -5z"/>
<path d="M2980 1446 c0 -8 61 -12 66 -4 3 4 -11 8 -30 8 -20 0 -36 -2 -36 -4z"/>
<path d="M3068 1433 c7 -3 16 -2 19 1 4 3 -2 6 -13 5 -11 0 -14 -3 -6 -6z"/>
<path d="M3108 1423 c6 -2 18 -2 25 0 6 3 1 5 -13 5 -14 0 -19 -2 -12 -5z"/>
<path d="M3155 1420 c-3 -5 1 -10 10 -10 9 0 13 5 10 10 -3 6 -8 10 -10 10 -2
0 -7 -4 -10 -10z"/>
<path d="M3207 1409 c7 -7 15 -10 18 -7 3 3 -2 9 -12 12 -14 6 -15 5 -6 -5z"/>
<path d="M3258 1393 c7 -3 16 -2 19 1 4 3 -2 6 -13 5 -11 0 -14 -3 -6 -6z"/>
<path d="M3298 1383 c7 -3 16 -2 19 1 4 3 -2 6 -13 5 -11 0 -14 -3 -6 -6z"/>
<path d="M3338 1373 c7 -3 16 -2 19 1 4 3 -2 6 -13 5 -11 0 -14 -3 -6 -6z"/>
<path d="M3370 1370 c0 -6 6 -10 14 -10 7 0 29 -3 47 -6 19 -4 31 -4 28 0 -4
4 -19 9 -35 12 -16 2 -35 7 -41 9 -7 2 -13 0 -13 -5z"/>
<path d="M3470 1353 c0 -10 104 -34 141 -32 19 1 16 3 -11 10 -19 4 -53 11
-75 14 -22 4 -43 9 -47 11 -5 3 -8 1 -8 -3z"/>
<path d="M3640 1316 c0 -5 165 -33 239 -41 30 -3 66 -8 80 -11 20 -4 23 -3 11
5 -8 5 -40 13 -70 16 -63 8 -80 10 -170 24 -71 12 -90 13 -90 7z"/>
<path d="M4005 1260 c11 -5 34 -8 50 -8 l30 0 -30 8 c-16 4 -39 8 -50 8 l-20
1 20 -9z"/>
<path d="M4098 1243 c7 -3 16 -2 19 1 4 3 -2 6 -13 5 -11 0 -14 -3 -6 -6z"/>
<path d="M4170 1236 c0 -2 7 -7 16 -10 8 -3 12 -2 9 4 -6 10 -25 14 -25 6z"/>
<path d="M4277 1209 c7 -7 15 -10 18 -7 3 3 -2 9 -12 12 -14 6 -15 5 -6 -5z"/>
<path d="M4828 1113 c7 -3 16 -2 19 1 4 3 -2 6 -13 5 -11 0 -14 -3 -6 -6z"/>
<path d="M4913 1104 c11 -11 37 -16 167 -33 46 -6 94 -10 105 -10 27 2 -44 17
-132 29 -40 5 -89 12 -110 16 -21 4 -34 3 -30 -2z"/>
<path d="M1135 1059 c-4 -6 -5 -12 -2 -15 2 -3 7 2 10 11 7 17 1 20 -8 4z"/>
<path d="M5351 1028 c-7 -23 -17 -53 -23 -67 -5 -14 -9 -28 -10 -31 0 -3 -4
-10 -9 -17 -6 -6 -6 -14 -1 -17 8 -5 67 162 59 170 -2 2 -9 -15 -16 -38z"/>
<path d="M5235 1050 c17 -4 39 -8 50 -9 16 -1 17 1 5 9 -8 5 -31 9 -50 9 l-35
-1 30 -8z"/>
<path d="M1078 918 c-16 -24 -16 -25 8 -20 14 2 21 9 17 16 -4 6 1 5 10 -3 14
-11 20 -11 34 0 11 10 14 10 9 2 -4 -7 -3 -13 3 -13 11 0 25 19 19 25 -2 2
-22 7 -44 11 -35 5 -42 3 -56 -18z"/>
<path d="M5290 869 c0 -5 5 -7 10 -4 6 3 10 8 10 11 0 2 -4 4 -10 4 -5 0 -10
-5 -10 -11z"/>
<path d="M5281 843 c-1 -6 -4 -20 -7 -30 -5 -17 -5 -17 6 0 6 10 9 23 6 30 -3
9 -5 9 -5 0z"/>
<path d="M5261 778 c-1 -10 -6 -18 -12 -18 -5 0 -7 -5 -3 -11 9 -15 28 16 20
34 -2 7 -5 4 -5 -5z"/>
<path d="M4440 742 c0 -22 4 -43 9 -46 5 -4 7 12 4 36 -6 56 -13 62 -13 10z"/>
<path d="M5378 707 c-72 -141 -156 -258 -287 -396 -75 -79 -149 -153 -166
-164 -16 -11 -54 -49 -83 -84 l-52 -63 425 0 425 0 0 370 0 370 -62 2 c-35 0
-89 2 -121 4 l-58 2 -21 -41z"/>
<path d="M5230 720 c0 -5 5 -10 10 -10 6 0 10 5 10 10 0 6 -4 10 -10 10 -5 0
-10 -4 -10 -10z"/>
<path d="M5220 690 c0 -5 5 -10 10 -10 6 0 10 5 10 10 0 6 -4 10 -10 10 -5 0
-10 -4 -10 -10z"/>
<path d="M3291 627 c-10 -27 -28 -43 -56 -50 -18 -4 -18 -5 3 -6 12 0 30 7 40
17 33 30 60 43 65 29 2 -7 8 -9 12 -5 12 11 -15 38 -36 38 -11 0 -23 -10 -28
-23z"/>
<path d="M4430 611 c-11 -27 -9 -31 35 -75 25 -26 41 -38 36 -27 -6 11 -18 27
-27 35 -14 15 -13 16 15 16 27 0 31 4 31 26 0 19 -8 28 -35 40 -44 18 -41 19
-55 -15z"/>
<path d="M5192 609 c-19 -30 -11 -32 11 -3 10 13 14 24 10 24 -5 0 -14 -9 -21
-21z"/>
<path d="M3017 559 c7 -7 15 -10 18 -7 3 3 -2 9 -12 12 -14 6 -15 5 -6 -5z"/>
<path d="M3160 563 c-16 -6 -248 -108 -320 -141 -25 -11 -99 -44 -165 -72 -66
-29 -142 -63 -170 -75 -98 -44 -352 -153 -475 -204 -175 -73 -168 -70 -148
-70 22 -1 424 166 622 258 48 22 90 41 92 41 2 0 32 13 66 29 104 49 336 151
448 197 58 24 96 43 85 43 -11 0 -27 -3 -35 -6z"/>
<path d="M2325 480 c-3 -6 1 -7 9 -4 18 7 21 14 7 14 -6 0 -13 -4 -16 -10z"/>
<path d="M5068 469 c-20 -21 -22 -29 -9 -29 5 0 16 11 25 25 19 29 9 32 -16 4z"/>
<path d="M4439 422 c-192 -162 -250 -208 -386 -307 -83 -60 -150 -111 -148
-113 14 -14 552 401 584 451 15 23 14 22 -50 -31z"/>
<path d="M5030 419 c0 -5 5 -7 10 -4 6 3 10 8 10 11 0 2 -4 4 -10 4 -5 0 -10
-5 -10 -11z"/>
<path d="M4940 329 c-15 -28 -4 -38 15 -13 17 22 19 34 5 34 -5 0 -14 -9 -20
-21z"/>
<path d="M4910 280 c0 -5 5 -10 10 -10 6 0 10 5 10 10 0 6 -4 10 -10 10 -5 0
-10 -4 -10 -10z"/>
<path d="M3125 70 c-3 -6 1 -7 9 -4 18 7 21 14 7 14 -6 0 -13 -4 -16 -10z"/>
<path d="M3800 56 c0 -2 7 -7 16 -10 8 -3 12 -2 9 4 -6 10 -25 14 -25 6z"/>
</g>
</svg>
