<?xml version="1.0" standalone="no"?>
<!DOCTYPE svg PUBLIC "-//W3C//DTD SVG 20010904//EN"
 "http://www.w3.org/TR/2001/REC-SVG-20010904/DTD/svg10.dtd">
<svg version="1.0" xmlns="http://www.w3.org/2000/svg"
 width="564.000000pt" height="564.000000pt" viewBox="0 0 564.000000 564.000000"
 preserveAspectRatio="xMidYMid meet">

<g transform="translate(0.000000,564.000000) scale(0.100000,-0.100000)"
fill="#000000" stroke="none">
<path d="M1690 5129 c-85 -49 -160 -95 -167 -101 -9 -7 -13 -41 -13 -113 l0
-102 -36 -6 c-39 -7 -250 -125 -278 -156 -67 -74 -60 -253 16 -411 l31 -65 7
40 c4 22 11 130 15 240 4 110 11 209 15 220 7 18 5 -183 -3 -422 -2 -46 -2
-83 0 -83 2 0 21 11 43 25 22 14 44 25 49 25 12 0 22 -27 15 -45 -10 -24 143
-171 191 -184 60 -17 72 -14 147 29 39 22 75 37 80 33 6 -3 8 -2 5 4 -4 5 4
16 17 22 47 26 62 138 30 236 -35 105 -136 215 -225 244 -39 13 -84 1 -156
-42 -18 -10 -33 -17 -33 -14 0 3 -15 -9 -32 -25 l-33 -31 -6 29 c-9 38 -11
179 -3 187 3 3 25 -2 48 -10 l43 -16 92 53 c50 29 90 58 88 64 -2 6 -20 20
-40 32 l-37 20 39 22 c21 12 41 22 45 22 3 0 6 -30 6 -66 l0 -65 43 25 42 25
5 72 5 71 55 32 55 32 3 122 c1 67 -1 122 -5 122 -4 0 -78 -41 -163 -91z
m-186 -680 c97 -27 206 -186 206 -301 0 -78 -13 -106 -56 -124 -34 -14 -41
-14 -82 2 -133 51 -245 283 -183 382 18 27 47 49 71 51 3 1 22 -4 44 -10z"/>
<path d="M1441 4394 l-22 -16 36 -25 c20 -14 38 -23 39 -21 2 1 6 20 9 41 5
33 4 37 -16 37 -13 0 -33 -7 -46 -16z"/>
<path d="M1563 4351 c4 -18 7 -41 7 -50 0 -10 18 -26 45 -39 25 -12 45 -18 45
-14 0 14 -56 96 -80 117 l-23 20 6 -34z"/>
<path d="M1410 4291 c0 -12 7 -38 16 -59 l15 -37 14 25 c14 27 9 44 -24 74
-21 19 -21 19 -21 -3z"/>
<path d="M1611 4158 c0 -13 6 -38 13 -56 11 -33 12 -33 29 -14 10 11 21 36 24
56 6 36 5 36 -31 36 -31 0 -36 -3 -35 -22z"/>
<path d="M1512 4147 c-30 -14 -28 -21 13 -52 51 -40 68 -30 36 21 -23 36 -29
40 -49 31z"/>
<path d="M4310 4955 c-15 -18 -6 -45 14 -45 45 0 61 31 27 50 -25 13 -26 13
-41 -5z"/>
<path d="M2220 4944 c0 -8 5 -12 10 -9 6 4 10 -6 10 -23 0 -35 31 -66 57 -58
16 5 63 66 63 81 0 3 -10 3 -22 0 -13 -3 -43 1 -67 10 -53 18 -51 18 -51 -1z"/>
<path d="M4480 4920 c0 -23 -4 -30 -20 -30 -12 0 -22 -9 -26 -24 -3 -15 -11
-23 -19 -20 -7 3 -15 -3 -17 -14 -5 -16 -4 -128 1 -222 1 -18 12 -31 39 -47
l38 -21 52 28 c55 30 62 29 62 -6 0 -28 12 -36 56 -36 48 0 64 17 64 68 0 43
0 43 -25 32 -19 -8 -35 -8 -65 1 -39 11 -40 13 -40 54 1 52 29 110 49 98 23
-14 52 -1 49 23 -4 29 -32 31 -79 7 -49 -26 -49 -26 -49 -1 0 11 5 20 10 20 6
0 10 -5 10 -11 0 -5 5 -7 10 -4 17 11 11 25 -15 35 -21 8 -30 6 -47 -10 -24
-22 -45 -25 -68 -9 -12 8 -11 9 6 5 35 -10 51 13 46 67 -4 51 -22 65 -22 17z"/>
<path d="M2341 4831 c-10 -7 -10 -10 -1 -13 19 -6 -4 -45 -31 -53 -27 -9 -91
3 -84 16 4 5 11 6 17 3 7 -4 8 -2 4 5 -6 9 -14 8 -34 -4 -36 -22 -63 -55 -56
-66 7 -12 34 -12 34 1 0 5 -7 6 -17 3 -11 -4 -14 -3 -9 5 11 19 34 14 50 -10
16 -25 13 -42 -36 -193 -21 -66 -23 -89 -25 -370 l-2 -300 -133 -77 c-82 -48
-144 -78 -162 -78 -37 0 -159 67 -150 82 4 6 3 8 -4 4 -6 -3 -22 -1 -37 6 -19
8 -22 14 -13 20 9 7 7 8 -7 4 -30 -7 -208 103 -215 133 -5 21 -7 22 -18 8 -8
-9 -12 -31 -10 -49 3 -32 11 -38 218 -156 178 -102 220 -122 244 -118 16 3 87
40 158 81 71 41 131 75 134 75 2 0 4 -27 4 -60 l0 -60 -46 0 c-44 0 -45 -1
-42 -27 3 -24 15 -34 81 -66 43 -21 82 -35 87 -32 6 4 10 21 11 38 1 18 4 42
7 55 l7 22 40 -20 c40 -20 74 -26 76 -12 0 4 2 18 3 32 14 127 16 167 8 245
-5 53 -4 190 1 335 l10 245 29 39 c33 46 37 99 13 205 -22 93 -59 130 -104
102z"/>
<path d="M2290 4785 c-14 -8 -20 -14 -14 -15 5 0 19 7 30 15 24 18 16 19 -16
0z"/>
<path d="M3690 4638 c0 -130 3 -157 15 -162 12 -4 14 0 9 22 -4 18 -3 23 4 14
7 -11 12 -10 26 3 22 23 20 28 -9 21 -17 -4 -25 -2 -26 6 0 7 -2 64 -4 127 -2
62 -6 116 -9 119 -4 3 -6 -65 -6 -150z"/>
<path d="M4160 4185 c1 -364 5 -585 10 -585 10 0 12 33 10 188 l-1 93 53 -7
c63 -8 57 7 -9 21 l-46 10 40 50 c77 98 95 125 86 125 -5 0 -27 -24 -48 -52
-79 -105 -75 -105 -75 5 0 65 4 97 11 97 8 0 8 4 -1 15 -9 11 0 29 52 97 l63
83 3 -82 c3 -82 3 -82 38 -103 23 -15 43 -20 59 -16 21 5 25 3 25 -16 0 -16
12 -30 41 -46 l40 -23 35 20 c44 26 44 26 44 -3 0 -27 46 -52 81 -43 15 4 23
0 26 -13 7 -25 55 -43 92 -35 29 6 31 5 31 -24 0 -35 22 -51 69 -51 l31 0 0
-365 c0 -237 4 -365 10 -365 6 0 10 12 10 28 0 19 24 58 76 127 42 55 77 101
78 102 1 2 34 -3 72 -10 59 -10 69 -15 72 -35 2 -12 8 -22 13 -22 5 0 9 231 9
585 0 383 -3 585 -10 585 -6 0 -10 -29 -10 -66 0 -71 0 -71 -96 -191 -23 -29
-44 -57 -46 -63 -2 -6 -29 -5 -78 3 l-75 13 -3 57 c-4 83 -22 70 -22 -17 l0
-74 -32 2 c-27 1 -33 -3 -33 -19 0 -16 7 -20 33 -20 l32 0 0 -77 0 -78 -36 0
c-53 0 -74 15 -74 53 0 32 -1 33 -34 29 -39 -4 -76 12 -76 33 0 11 -11 15 -38
15 -21 0 -46 6 -56 13 -22 16 -23 61 -4 108 14 33 18 35 53 31 34 -4 36 -3 33
19 -4 29 -48 38 -68 15 -18 -22 -39 -20 -33 3 3 13 11 17 24 14 10 -3 19 -1
19 5 0 11 -60 35 -68 27 -3 -3 -1 -5 3 -5 5 0 0 -7 -11 -15 -10 -8 -32 -14
-49 -13 l-30 0 30 7 c34 7 46 38 21 56 -8 6 -20 25 -27 41 -6 16 -13 23 -16
17 -3 -7 -13 -13 -24 -13 -10 0 -19 -4 -19 -8 0 -9 -44 -32 -60 -32 -20 0 -9
19 13 22 18 2 22 10 23 39 l1 35 -34 -15 c-29 -13 -34 -20 -31 -43 4 -23 2
-26 -10 -16 -11 10 -17 9 -27 -6 -11 -14 -22 -16 -57 -11 -76 11 -77 16 -20
89 29 36 52 68 52 71 0 10 -40 -20 -40 -30 -1 -11 -56 -75 -65 -75 -3 0 -5 72
-5 160 0 100 -4 160 -10 160 -7 0 -10 -201 -10 -585z m113 190 c20 -3 37 -8
37 -11 0 -4 -70 -101 -92 -129 -5 -5 -15 -19 -22 -29 -12 -17 -14 -6 -15 83
l-2 103 28 -5 c15 -3 45 -8 66 -12z m197 -31 c0 -8 -4 -12 -10 -9 -5 3 -10 10
-10 16 0 5 5 9 10 9 6 0 10 -7 10 -16z m770 -84 l0 -91 -52 7 c-29 4 -58 9
-65 13 -8 4 9 33 48 84 33 42 62 77 65 77 2 0 4 -41 4 -90z m-178 -88 c4 -4
-16 -39 -45 -77 -81 -110 -77 -110 -77 1 l0 97 57 -7 c32 -4 61 -10 65 -14z
m112 -12 c62 -10 77 -17 60 -28 -5 -4 -31 -36 -57 -72 -87 -121 -79 -115 -154
-103 -35 6 -67 14 -70 17 -8 8 136 196 150 196 7 0 38 -4 71 -10z m64 -235
c-2 -2 -31 2 -66 8 l-64 12 64 83 63 82 3 -91 c1 -50 1 -93 0 -94z m-205 10
c20 -3 37 -8 37 -11 0 -6 -84 -116 -113 -149 -18 -19 -18 -18 -16 70 1 50 3
93 6 98 2 4 14 5 26 3 12 -3 39 -8 60 -11z m204 -41 c2 -6 -5 -20 -14 -31 -25
-30 -56 -70 -99 -126 -24 -32 -41 -46 -52 -43 -9 3 -43 8 -75 12 -32 3 -56 11
-55 16 2 5 36 53 76 107 l74 97 71 -10 c38 -6 72 -16 74 -22z m3 -135 l0 -90
-47 7 c-89 13 -88 11 -22 97 33 42 62 77 65 77 2 0 4 -41 4 -91z m-226 -74
c25 -4 48 -11 51 -15 5 -7 -83 -127 -109 -149 -14 -12 -16 -4 -16 84 0 78 3
96 14 92 7 -3 34 -9 60 -12z m163 -26 c35 -6 63 -16 63 -21 0 -6 -15 -28 -32
-48 -18 -21 -51 -63 -73 -94 -22 -30 -44 -55 -50 -56 -19 0 -140 21 -144 26
-3 3 -1 8 4 12 6 4 41 49 79 100 37 50 73 92 79 92 6 0 39 -5 74 -11z m63
-150 l0 -92 -62 7 c-35 4 -64 9 -66 11 -3 3 120 165 125 165 2 0 3 -41 3 -91z
m-225 -79 c17 0 37 -5 45 -10 13 -9 13 -11 0 -20 -8 -5 -11 -10 -7 -10 5 0 2
-6 -5 -13 -7 -8 -26 -31 -43 -52 -71 -90 -64 -92 -65 19 0 97 0 98 23 92 12
-3 36 -6 52 -6z"/>
<path d="M3662 4600 l1 -135 10 123 c7 90 7 126 -2 135 -8 8 -11 -23 -9 -123z"/>
<path d="M4774 4715 c-4 -9 0 -23 8 -32 13 -12 20 -13 37 -3 30 15 23 44 -12
48 -18 2 -29 -2 -33 -13z"/>
<path d="M2136 4693 c-6 -14 -5 -15 5 -6 7 7 10 15 7 18 -3 3 -9 -2 -12 -12z"/>
<path d="M2195 4690 c3 -5 8 -10 11 -10 2 0 4 5 4 10 0 6 -5 10 -11 10 -5 0
-7 -4 -4 -10z"/>
<path d="M1627 4673 c-9 -8 44 -44 55 -37 4 3 8 1 8 -3 0 -12 56 -44 64 -36
13 13 5 24 -14 18 -14 -4 -18 -2 -15 7 3 8 -13 22 -40 36 -50 25 -49 24 -58
15z"/>
<path d="M4954 4645 c-9 -24 10 -39 41 -31 18 5 25 12 23 24 -4 23 -56 29 -64
7z"/>
<path d="M2012 4603 c2 -13 12 -18 33 -18 43 0 40 29 -3 33 -28 3 -33 0 -30
-15z"/>
<path d="M1946 4576 c-32 -26 -27 -51 8 -42 11 3 28 1 36 -4 20 -12 33 -1 19
16 -13 16 1 19 19 4 7 -5 6 -3 -2 6 -14 16 -41 11 -31 -6 6 -10 -51 -8 -61 3
-4 4 -1 7 7 7 8 0 20 9 27 20 15 25 14 25 -22 -4z"/>
<path d="M1431 4564 c0 -11 3 -14 6 -6 3 7 2 16 -1 19 -3 4 -6 -2 -5 -13z"/>
<path d="M3830 4540 c-14 -11 -31 -20 -37 -20 -7 0 -13 -2 -13 -4 0 -2 -3 -11
-6 -20 -4 -11 2 -19 19 -25 21 -8 26 -18 29 -53 4 -43 4 -43 16 -15 13 30 27
35 36 11 3 -8 11 -12 16 -9 16 10 -8 35 -33 35 -11 0 -26 8 -33 18 -17 22 -18
36 -2 26 7 -5 20 -9 28 -9 8 -1 27 -13 42 -28 32 -32 52 -34 96 -7 30 18 43
40 24 40 -5 0 -38 18 -75 40 -36 22 -70 40 -74 40 -4 0 -19 -9 -33 -20z"/>
<path d="M1836 4503 c-6 -16 8 -33 29 -33 21 0 38 19 32 34 -8 21 -53 21 -61
-1z"/>
<path d="M4917 4438 c6 -59 22 -78 66 -78 54 0 67 15 67 77 0 43 -3 53 -12 46
-24 -19 -64 -22 -92 -8 -16 8 -30 15 -32 15 -2 0 0 -24 3 -52z"/>
<path d="M2020 4470 c0 -5 5 -10 11 -10 5 0 7 5 4 10 -3 6 -8 10 -11 10 -2 0
-4 -4 -4 -10z"/>
<path d="M3690 4450 c-11 -7 -12 -12 -4 -20 8 -8 13 -6 17 9 3 12 4 21 4 21
-1 0 -9 -5 -17 -10z"/>
<path d="M4026 4453 c-4 -5 -51 -33 -104 -63 l-97 -55 -3 -48 c-2 -26 -7 -47
-12 -47 -5 0 -10 -16 -12 -36 -4 -54 -27 -63 -82 -36 l-45 23 -3 72 c-2 40 -7
72 -13 72 -16 0 -18 -134 -3 -153 10 -12 10 -14 1 -8 -8 4 -13 2 -13 -7 0 -9
-12 -14 -35 -15 -38 -1 -75 -17 -75 -32 0 -4 14 -2 31 7 37 18 79 12 146 -22
l48 -25 -30 25 c-16 14 -40 28 -52 31 -17 5 -19 9 -11 18 9 10 23 6 62 -15 28
-15 53 -36 57 -46 4 -13 8 -7 13 22 9 51 34 84 66 87 23 3 25 -1 28 -39 2 -34
0 -43 -12 -43 -9 0 -16 -4 -16 -10 0 -5 8 -10 18 -10 10 0 25 -9 35 -20 23
-27 40 -25 82 11 l35 31 0 157 c0 109 4 161 12 169 7 7 8 12 2 12 -6 0 -14 -3
-18 -7z"/>
<path d="M2078 4428 c5 -5 16 -8 23 -6 8 3 3 7 -10 11 -17 4 -21 3 -13 -5z"/>
<path d="M4743 4263 c-18 -7 -16 -40 3 -47 16 -6 54 9 54 22 0 23 -31 36 -57
25z"/>
<path d="M1197 4153 c-21 -20 18 -83 42 -68 16 9 13 41 -5 59 -17 17 -27 20
-37 9z"/>
<path d="M3499 4074 c-12 -24 -11 -28 7 -43 34 -27 34 -45 0 -59 l-30 -13 37
-22 c21 -13 35 -26 31 -30 -4 -4 2 -7 14 -7 12 0 44 -13 70 -30 50 -31 78 -37
84 -21 2 5 10 11 18 13 8 2 21 9 28 16 8 7 17 10 22 7 5 -3 10 -2 12 2 7 17
69 53 80 47 6 -4 8 -3 5 3 -3 5 14 20 40 33 45 23 45 23 22 35 -20 11 -24 10
-34 -9 -7 -14 -20 -21 -40 -21 -29 0 -30 1 -30 57 0 93 -15 78 -17 -18 -1 -49
-3 -72 -5 -51 -2 20 -8 35 -14 32 -17 -11 -49 6 -49 27 0 15 -4 18 -17 12 -45
-19 -93 -16 -143 10 -60 31 -58 31 -62 4 -3 -19 -4 -19 -16 -6 -10 13 -10 19
3 31 8 9 11 18 7 21 -5 3 -15 -6 -23 -20z"/>
<path d="M1431 4034 c0 -11 3 -14 6 -6 3 7 2 16 -1 19 -3 4 -6 -2 -5 -13z"/>
<path d="M1460 4046 c0 -2 8 -10 18 -17 15 -13 16 -12 3 4 -13 16 -21 21 -21
13z"/>
<path d="M4330 3994 c-18 -21 9 -49 39 -39 25 7 28 40 5 49 -23 9 -30 8 -44
-10z"/>
<path d="M4420 3989 c0 -5 5 -7 10 -4 6 3 10 8 10 11 0 2 -4 4 -10 4 -5 0 -10
-5 -10 -11z"/>
<path d="M3923 3963 c-19 -7 -16 -30 4 -37 11 -5 22 -1 30 10 20 27 1 42 -34
27z"/>
<path d="M4487 3961 c1 -2 -7 -11 -18 -20 -28 -22 -16 -53 20 -49 31 4 37 26
13 53 -9 11 -16 18 -15 16z"/>
<path d="M3485 3920 c3 -5 13 -10 21 -10 8 0 12 5 9 10 -3 6 -13 10 -21 10 -8
0 -12 -4 -9 -10z"/>
<path d="M4576 3854 c-9 -23 6 -36 35 -32 16 2 24 10 24 23 0 27 -49 34 -59 9z"/>
<path d="M3708 3836 c-10 -7 -18 -18 -18 -24 0 -18 33 -23 49 -7 13 13 13 17
1 29 -12 12 -18 13 -32 2z"/>
<path d="M4244 3762 c-39 -48 -47 -62 -36 -62 10 0 76 89 70 96 -3 2 -18 -13
-34 -34z"/>
<path d="M4723 3793 c-7 -2 -13 -15 -13 -28 0 -15 -5 -22 -17 -21 -13 1 -19
-9 -23 -34 -5 -32 -8 -35 -44 -38 -68 -6 -86 3 -86 44 0 35 -1 36 -32 30 -21
-4 -44 0 -62 9 -15 8 -30 15 -31 15 -8 0 8 -107 18 -118 8 -10 26 -13 59 -10
47 5 48 4 48 -22 0 -41 22 -54 80 -47 l50 6 0 -43 c0 -40 4 -46 41 -70 60 -40
69 -27 69 94 0 85 2 99 21 116 19 17 21 18 30 1 14 -23 46 -21 59 4 10 17 7
24 -12 44 -24 24 -84 53 -74 36 3 -5 -6 -17 -20 -26 -20 -13 -31 -15 -48 -7
-19 10 -18 11 12 11 25 1 32 5 32 21 0 16 -29 43 -42 39 -2 0 -9 -3 -15 -6z
m122 -62 c3 -5 1 -12 -5 -16 -5 -3 -10 1 -10 9 0 18 6 21 15 7z"/>
<path d="M1825 3468 c-11 -6 -25 -19 -32 -27 -17 -24 -26 -82 -14 -94 8 -8 11
-6 11 7 0 10 5 14 11 11 6 -4 16 1 23 10 11 15 17 16 49 6 35 -12 77 -3 77 17
0 19 -36 55 -66 68 -39 16 -34 16 -59 2z"/>
<path d="M3656 3389 c5 -9 1 -10 -14 -7 -12 4 -20 2 -16 -3 8 -13 -10 -11 -25
4 -11 10 -12 9 -6 -2 6 -11 3 -13 -13 -9 -12 4 -22 5 -22 3 0 -2 49 -38 110
-79 114 -80 141 -89 335 -120 38 -6 39 -6 20 10 -31 25 -301 184 -341 200 -25
10 -33 11 -28 3z"/>
<path d="M1746 3251 c-3 -5 -30 -23 -59 -39 -28 -17 -61 -38 -72 -47 -20 -16
-20 -16 2 -6 57 28 67 -17 28 -135 -14 -42 -25 -80 -25 -85 0 -11 111 -60 122
-53 5 3 23 0 39 -6 23 -10 39 -10 68 -1 l38 11 27 132 c31 157 32 179 8 208
-16 20 -21 21 -40 9 -12 -8 -22 -17 -22 -22 0 -4 5 -5 10 -2 6 3 10 1 10 -4 0
-6 -4 -11 -8 -11 -4 0 -14 -16 -21 -35 -7 -19 -16 -35 -19 -35 -4 0 -16 14
-26 31 -11 18 -24 28 -32 25 -24 -9 -41 38 -22 61 6 7 8 13 5 13 -3 0 -8 -4
-11 -9z"/>
<path d="M831 3205 c-67 -19 -114 -47 -141 -85 -16 -23 -20 -44 -20 -119 0
-79 3 -95 24 -126 40 -58 59 -129 54 -201 -4 -60 -3 -64 22 -73 69 -26 100
-31 181 -31 105 0 183 25 238 76 l36 32 3 204 c3 244 1 251 -104 300 -81 38
-205 47 -293 23z"/>
<path d="M3670 3149 c-74 -7 -130 -28 -285 -107 -242 -123 -463 -259 -530
-328 -32 -32 -66 -82 -92 -135 -46 -94 -113 -286 -113 -324 0 -35 32 -40 79
-13 35 20 40 27 36 50 -4 20 3 36 26 63 26 30 37 35 73 35 22 -1 58 -7 78 -14
21 -8 35 -10 33 -5 -3 4 39 33 92 64 196 114 569 339 624 376 72 49 115 98
151 176 36 75 46 134 27 150 -18 14 -115 20 -199 12z m27 -43 c9 -28 8 -34 -3
-29 -10 4 -12 0 -7 -13 4 -12 3 -15 -5 -10 -7 4 -24 -1 -40 -11 -15 -10 -40
-25 -57 -33 -16 -8 -32 -17 -35 -20 -3 -3 -21 -14 -40 -24 -19 -10 -55 -32
-79 -48 -24 -16 -49 -27 -56 -25 -6 3 -17 -4 -23 -14 -7 -10 -15 -18 -20 -17
-14 3 -42 -14 -36 -23 7 -12 -17 -7 -31 6 -18 18 -46 86 -39 97 10 16 343 176
388 187 67 15 72 13 83 -23z m112 25 c9 -6 4 -8 -17 -7 -17 1 -34 5 -38 9 -10
10 38 9 55 -2z m-645 -292 c30 -59 32 -69 11 -69 -8 0 -15 -5 -15 -11 0 -5 -4
-7 -10 -4 -5 3 -10 2 -10 -4 0 -6 -7 -8 -15 -5 -9 4 -15 0 -15 -7 0 -11 -3
-11 -11 1 -8 11 -9 5 -7 -27 3 -43 -7 -47 -22 -9 -8 20 -8 20 -16 2 -4 -10 -2
-27 5 -37 8 -14 8 -19 0 -19 -6 0 -13 9 -16 20 -5 20 -33 29 -33 10 0 -5 -6
-10 -14 -10 -7 0 -19 -7 -26 -15 -7 -8 -16 -12 -21 -9 -5 3 -9 0 -9 -5 0 -6
-6 -11 -14 -11 -7 0 -19 -7 -26 -15 -7 -8 -16 -12 -21 -9 -5 3 -9 0 -9 -5 0
-6 -6 -11 -14 -11 -7 0 -19 -7 -26 -15 -7 -8 -20 -15 -30 -15 -18 0 -34 -25
-25 -39 2 -4 -2 -8 -10 -8 -33 0 58 163 121 216 40 33 233 160 246 161 4 0 18
-23 32 -51z m22 -136 c-3 -4 -6 -1 -6 5 0 20 -20 13 -30 -10 l-9 -23 0 22 c-1
28 30 48 42 27 5 -9 6 -18 3 -21z"/>
<path d="M1586 3123 c-6 -14 -5 -15 5 -6 7 7 10 15 7 18 -3 3 -9 -2 -12 -12z"/>
<path d="M4210 3089 c-12 -21 -6 -83 10 -109 8 -13 11 -12 24 5 19 25 20 47 2
90 -17 41 -21 42 -36 14z"/>
<path d="M1566 3069 c-8 -42 0 -50 9 -9 4 17 5 34 2 36 -2 3 -7 -10 -11 -27z"/>
<path d="M1581 3014 c0 -11 3 -14 6 -6 3 7 2 16 -1 19 -3 4 -6 -2 -5 -13z"/>
<path d="M1552 2990 c0 -14 2 -19 5 -12 2 6 2 18 0 25 -3 6 -5 1 -5 -13z"/>
<path d="M1544 2926 c1 -25 6 -41 16 -44 12 -4 13 -2 3 9 -6 8 -13 28 -16 44
-4 23 -4 20 -3 -9z"/>
<path d="M1560 2915 c0 -8 4 -15 10 -15 5 0 7 7 4 15 -4 8 -8 15 -10 15 -2 0
-4 -7 -4 -15z"/>
<path d="M4265 2899 c-4 -5 1 -12 9 -15 9 -4 16 -18 16 -34 0 -61 60 -64 98
-5 28 44 28 46 -5 39 -16 -3 -47 2 -70 10 -26 9 -45 11 -48 5z"/>
<path d="M4690 2842 l0 -57 88 -51 87 -52 5 47 c3 25 4 53 2 61 -3 14 -157
110 -175 110 -4 0 -7 -26 -7 -58z"/>
<path d="M1678 2883 c7 -3 16 -2 19 1 4 3 -2 6 -13 5 -11 0 -14 -3 -6 -6z"/>
<path d="M1705 2870 c-3 -5 -1 -10 4 -10 6 0 11 5 11 10 0 6 -2 10 -4 10 -3 0
-8 -4 -11 -10z"/>
<path d="M1920 2877 c0 -2 14 -16 31 -33 26 -24 30 -25 20 -7 -10 19 -51 51
-51 40z"/>
<path d="M2430 2876 c0 -3 16 -14 36 -27 26 -16 32 -24 23 -30 -17 -10 -15
-12 46 -43 28 -14 52 -21 53 -15 2 5 8 9 13 9 4 0 6 -6 3 -13 -3 -8 12 -22 37
-35 49 -26 53 -27 45 -6 -3 8 -2 12 4 9 6 -3 10 -13 10 -21 0 -8 7 -14 15 -14
8 0 15 -2 15 -5 0 -14 -149 -327 -156 -328 -5 -1 -12 22 -16 52 -8 72 -52 128
-114 146 -27 7 -54 -18 -54 -51 0 -31 -14 -30 -75 7 -88 52 -116 64 -123 53
-11 -18 -52 -35 -65 -29 -6 4 -1 -3 12 -14 12 -12 27 -18 32 -15 5 3 8 1 7 -4
-2 -5 33 -35 77 -67 44 -31 119 -95 166 -141 84 -84 86 -85 106 -67 20 17 223
452 223 477 0 6 -30 26 -67 43 -38 17 -110 54 -160 82 -51 28 -93 49 -93 47z
m10 -366 c0 -11 -7 -23 -15 -27 -21 -8 -28 1 -20 26 8 27 35 27 35 1z m65 -17
c29 -32 32 -53 8 -53 -25 0 -53 30 -53 57 0 30 13 29 45 -4z m40 -94 c10 -15
-1 -23 -20 -15 -9 3 -13 10 -10 16 8 13 22 13 30 -1z"/>
<path d="M367 2856 c-18 -14 -16 -18 16 -29 10 -4 16 -3 13 2 -3 5 3 11 14 14
11 3 20 10 20 16 0 15 -41 13 -63 -3z"/>
<path d="M1566 2848 c-9 -35 -8 -38 17 -38 12 0 59 -15 104 -34 80 -32 82 -32
87 -12 9 34 7 46 -10 46 -8 0 -54 14 -101 30 -46 17 -86 30 -88 30 -1 0 -5
-10 -9 -22z"/>
<path d="M1876 2851 c-5 -7 32 -30 44 -27 3 0 18 -7 33 -17 15 -9 27 -13 27
-7 0 5 -4 10 -9 10 -4 0 -20 11 -35 25 -28 25 -51 32 -60 16z"/>
<path d="M480 2826 c0 -9 5 -16 10 -16 6 0 24 -21 40 -47 17 -26 30 -40 30
-31 0 16 -51 91 -69 103 -6 3 -11 -1 -11 -9z"/>
<path d="M2011 2818 c-14 -23 -14 -23 8 -4 22 20 25 26 13 26 -4 0 -13 -10
-21 -22z"/>
<path d="M2073 2824 c20 -11 27 -20 22 -32 -5 -14 -4 -15 7 -4 11 11 9 17 -11
33 -13 10 -28 19 -35 19 -6 -1 2 -8 17 -16z"/>
<path d="M3819 2784 c-7 -9 -30 -23 -51 -31 -35 -14 -51 -33 -29 -33 34 0 111
50 111 72 0 13 -17 9 -31 -8z"/>
<path d="M340 2778 c0 -26 21 -87 32 -94 7 -5 9 1 4 20 -4 18 -3 25 4 21 5 -3
1 10 -11 29 -22 38 -29 44 -29 24z"/>
<path d="M1810 2775 c0 -7 14 -12 30 -13 17 0 30 3 30 8 0 4 -13 10 -30 12
-19 3 -30 0 -30 -7z"/>
<path d="M4379 2773 c-12 -15 -12 -16 4 -10 20 8 22 -2 4 -26 -19 -27 -67 -36
-100 -20 -25 13 -31 12 -53 -2 -22 -14 -26 -14 -50 1 -19 13 -24 23 -19 41 5
21 2 23 -32 23 -24 0 -58 -11 -90 -30 -59 -34 -128 -112 -119 -135 8 -22 21
-18 37 12 14 27 63 53 98 53 13 0 21 -9 26 -30 8 -34 12 -36 43 -14 18 13 26
13 38 3 11 -9 18 -9 32 5 10 9 22 13 26 9 4 -4 4 0 1 9 -9 23 14 33 33 14 14
-14 15 -23 4 -78 -19 -92 -60 -213 -83 -242 -26 -33 -42 -33 -85 0 -27 21 -34
23 -34 10 0 -24 -57 -49 -97 -41 -61 11 -88 87 -63 175 10 34 5 70 -9 70 -21
0 -50 -154 -37 -203 6 -26 53 -59 96 -70 14 -3 43 1 65 8 21 8 41 12 44 9 3
-2 7 -45 9 -95 5 -91 4 -91 -19 -89 -43 4 -49 0 -49 -25 0 -22 11 -31 75 -61
41 -20 81 -34 88 -32 7 3 16 41 23 99 8 64 12 80 13 49 1 -54 30 -290 36 -300
2 -4 33 -17 67 -29 35 -13 98 -39 141 -58 l77 -36 -21 -36 c-19 -32 -19 -36
-4 -47 9 -7 25 -10 35 -6 33 12 129 96 130 113 0 18 -175 126 -250 155 -25 9
-48 20 -51 23 -4 3 -9 48 -11 99 -4 91 -4 92 20 92 59 0 85 48 81 151 l-3 62
34 11 c31 10 39 21 77 109 50 116 73 151 113 169 17 7 30 19 30 25 0 22 -16
14 -58 -27 -44 -42 -69 -85 -103 -176 -24 -63 -50 -94 -79 -94 -18 0 -20 7
-20 73 0 72 0 73 30 84 28 11 30 14 30 67 0 30 -5 78 -11 107 -18 82 -76 125
-110 82z m-205 -68 c15 -14 32 -22 38 -19 7 5 8 2 3 -7 -22 -38 -26 -39 -67
-11 -27 17 -54 27 -79 27 -22 0 -39 1 -39 3 0 8 68 31 91 32 14 0 38 -11 53
-25z m23 -487 c-3 -7 -5 -2 -5 12 0 14 2 19 5 13 2 -7 2 -19 0 -25z"/>
<path d="M1510 2748 c-7 -279 -7 -388 -3 -388 3 0 31 23 63 50 56 48 59 53 67
113 l9 62 14 -42 c7 -24 15 -43 17 -43 2 0 26 17 54 37 34 26 49 44 47 57 -2
13 -44 44 -128 93 -68 40 -128 73 -132 73 -5 0 -8 -6 -8 -12z"/>
<path d="M4280 2741 c0 -16 42 -23 70 -11 23 9 22 10 -8 4 -20 -3 -39 -1 -47
6 -10 9 -15 9 -15 1z"/>
<path d="M552 2630 c-17 -56 -15 -69 8 -41 19 22 28 81 12 81 -4 0 -13 -18
-20 -40z"/>
<path d="M4790 2661 c0 -13 80 -65 88 -57 7 8 -3 17 -50 45 -21 13 -38 18 -38
12z"/>
<path d="M521 2644 c0 -11 3 -14 6 -6 3 7 2 16 -1 19 -3 4 -6 -2 -5 -13z"/>
<path d="M3997 2628 c-24 -30 -25 -34 -10 -50 9 -10 19 -15 23 -13 10 6 24 84
17 91 -3 3 -16 -10 -30 -28z"/>
<path d="M4199 2623 c-13 -16 -12 -17 4 -4 16 13 21 21 13 21 -2 0 -10 -8 -17
-17z"/>
<path d="M426 2609 c23 -26 74 -53 74 -40 0 6 -9 16 -20 24 -11 8 -17 16 -14
19 3 3 0 9 -7 14 -8 4 -10 3 -5 -4 4 -7 3 -12 -3 -12 -5 0 -13 5 -16 10 -3 6
-11 10 -17 10 -6 0 -3 -9 8 -21z"/>
<path d="M4226 2613 c-6 -14 -5 -15 5 -6 7 7 10 15 7 18 -3 3 -9 -2 -12 -12z"/>
<path d="M4135 2560 c-16 -18 -17 -23 -5 -48 l13 -27 8 44 c10 53 8 57 -16 31z"/>
<path d="M1735 2483 c-165 -129 -210 -177 -230 -247 -20 -68 -24 -182 -7 -213
21 -38 185 -140 286 -177 100 -38 261 -1 420 95 76 45 90 45 135 -6 l30 -34
-6 -113 c-3 -62 -11 -138 -18 -168 -17 -67 -22 -179 -9 -188 5 -4 14 -16 20
-26 6 -11 59 -48 119 -83 131 -75 162 -80 231 -32 25 17 48 29 50 26 3 -2 0
-56 -7 -118 -6 -63 -8 -141 -4 -174 4 -33 9 -73 10 -88 2 -16 5 -30 7 -32 10
-10 38 -6 71 10 45 23 57 13 57 -48 0 -24 5 -40 15 -43 8 -4 50 11 93 32 67
34 77 43 80 68 4 29 3 29 -41 24 l-45 -5 -4 61 c-4 68 5 232 14 241 2 3 35
-12 71 -32 59 -34 66 -41 67 -69 0 -25 7 -34 39 -52 37 -21 71 -21 71 -1 0 15
18 10 22 -6 2 -11 42 8 148 69 l145 83 3 343 2 342 -52 -31 c-29 -17 -77 -43
-105 -58 -42 -22 -53 -32 -54 -53 0 -14 -2 -32 -4 -41 -1 -8 -6 -42 -9 -75 -4
-32 -11 -86 -16 -119 -6 -33 -10 -78 -11 -100 -1 -22 -3 -32 -6 -22 -2 9 -27
30 -55 45 -28 15 -58 32 -67 37 -9 6 -56 33 -104 60 l-87 50 -1 45 c-1 25 -1
53 0 63 1 9 -6 34 -17 55 -20 39 -50 141 -58 203 -6 43 14 70 49 64 20 -4 20
-2 -7 21 -15 14 -27 26 -25 28 27 22 46 23 76 4 18 -11 33 -15 33 -10 0 5 -12
14 -27 21 l-27 13 54 34 c30 18 49 34 41 34 -7 0 -33 -14 -58 -30 -36 -25 -48
-28 -64 -19 -30 16 -52 -6 -44 -45 5 -23 4 -27 -4 -16 -6 8 -11 10 -11 4 0
-32 -93 -16 -111 18 -9 17 -9 23 0 26 17 6 3 22 -20 22 -13 0 -18 4 -13 12 4
7 3 8 -5 4 -6 -4 -8 -12 -5 -18 5 -7 2 -9 -8 -5 -29 11 -67 -113 -68 -221 0
-59 -1 -62 -19 -52 -70 37 -180 -20 -257 -134 l-34 -51 6 113 6 113 -43 40
c-39 36 -60 71 -38 66 13 -3 132 102 162 144 l26 36 -25 12 c-14 6 -31 8 -37
5 -7 -4 -9 -4 -5 1 4 4 -16 22 -45 40 -74 46 -411 245 -477 283 l-56 31 -109
-86z m109 -98 c3 -10 -7 -23 -32 -38 -60 -38 -79 -47 -87 -39 -5 4 -4 1 0 -7
6 -11 4 -13 -9 -8 -9 4 -15 3 -12 -1 2 -4 -11 -25 -30 -46 -19 -21 -34 -46
-34 -57 0 -23 -21 -69 -31 -69 -4 0 -12 15 -19 34 -23 69 46 162 163 221 58
29 82 31 91 10z m286 -49 c30 -18 86 -50 123 -70 63 -35 67 -39 50 -51 -35
-25 -70 -18 -131 23 -15 11 -44 30 -64 43 -20 13 -34 27 -32 31 3 5 2 7 -3 6
-16 -4 -51 13 -57 28 -17 45 28 41 114 -10z m-55 -156 c3 -6 -1 -7 -9 -4 -18
7 -21 14 -7 14 6 0 13 -4 16 -10z m53 -40 c17 -55 16 -120 -2 -120 -7 0 -16
-9 -19 -20 -4 -15 -14 -20 -36 -20 -17 0 -31 -5 -31 -11 0 -19 63 -1 83 22 24
30 31 18 14 -24 -19 -44 -74 -82 -156 -107 -87 -27 -137 -27 -152 3 -7 12 -35
49 -62 82 -28 33 -58 68 -66 79 -14 16 -9 15 32 -5 l48 -24 40 22 40 22 11
-24 c8 -18 8 -28 -2 -40 -10 -12 -9 -16 4 -21 25 -10 28 -1 17 47 -9 40 -8 46
11 60 34 26 51 13 44 -32 -5 -29 -3 -39 7 -39 20 0 28 11 18 24 -4 6 -11 25
-14 43 -5 26 -2 34 19 48 33 21 47 10 41 -31 -6 -36 8 -54 26 -34 9 9 9 14 1
17 -7 2 -10 13 -7 24 3 10 0 26 -6 33 -10 12 -7 18 13 31 33 22 48 11 44 -34
-2 -27 1 -36 12 -36 16 0 17 8 7 68 -8 49 5 48 21 -3z m836 -9 c3 -5 -1 -11
-9 -15 -9 -3 -15 0 -15 9 0 16 16 20 24 6z m-1311 -68 c18 -9 27 -18 20 -20
-7 -3 19 -40 62 -90 67 -76 85 -103 70 -103 -22 0 -61 32 -91 76 -20 29 -43
55 -51 58 -8 4 2 -16 22 -44 40 -54 39 -59 -5 -33 -35 20 -57 104 -25 95 6 -1
2 4 -7 11 -10 8 -18 21 -18 29 0 8 -5 19 -12 26 -17 17 -3 15 35 -5z m1867
-316 l0 -93 -40 -23 c-23 -13 -47 -20 -55 -17 -8 3 -17 0 -21 -6 -5 -7 -2 -8
7 -3 11 6 11 5 2 -5 -15 -16 -38 -3 -24 14 6 7 8 16 5 19 -4 3 -3 35 1 71 l7
65 56 35 c31 20 58 36 60 36 1 0 2 -42 2 -93z m-887 62 c85 -39 59 -218 -46
-328 -70 -72 -135 -89 -182 -48 -75 64 -14 267 103 348 55 38 87 45 125 28z
m107 -123 c0 -56 3 -158 6 -227 l7 -125 -50 -32 c-70 -45 -96 -42 -211 24 -53
30 -104 62 -112 71 -13 14 -13 14 7 4 62 -31 155 -1 218 71 39 45 95 151 95
181 0 9 5 17 11 17 8 0 10 23 7 69 -3 58 -1 68 10 59 10 -8 13 -39 12 -112z
m393 -190 c-3 -5 -1 -6 5 -2 10 6 47 -9 62 -24 3 -3 22 -14 43 -25 69 -36 69
-37 51 -171 -9 -65 -16 -129 -16 -142 0 -20 -2 -21 -17 -9 -9 7 -37 26 -63 41
-26 15 -47 32 -45 38 1 6 -5 13 -13 15 -13 4 -13 3 0 -6 36 -25 -11 -7 -70 27
l-65 38 -3 103 c-2 89 0 105 15 116 10 7 21 11 24 9 4 -2 14 5 23 15 16 18 19
18 46 3 16 -9 26 -21 23 -26z"/>
<path d="M1970 1925 c0 -17 -38 -35 -57 -28 -7 3 -13 0 -13 -6 0 -16 42 -13
68 5 22 15 30 44 12 44 -5 0 -10 -7 -10 -15z"/>
<path d="M2570 1770 c-8 -5 -9 -17 -3 -38 l8 -31 33 21 c24 15 30 23 22 33
-14 17 -45 25 -60 15z"/>
<path d="M2478 1712 c-30 -32 -58 -73 -58 -84 0 -5 18 1 40 12 31 16 40 27 46
55 8 47 3 51 -28 17z"/>
<path d="M2621 1659 c-21 -27 -22 -34 -11 -57 10 -22 13 -24 20 -11 10 17 25
99 19 98 -2 0 -15 -14 -28 -30z"/>
<path d="M2407 1528 c5 -33 19 -58 33 -58 6 0 30 66 30 84 0 3 -15 6 -34 6
-33 0 -34 -1 -29 -32z"/>
<path d="M2511 1500 c-12 -22 -20 -40 -16 -40 12 0 62 29 74 44 10 12 9 17 -8
25 -27 15 -24 16 -50 -29z"/>
<path d="M3055 1490 c-3 -6 1 -7 9 -4 18 7 21 14 7 14 -6 0 -13 -4 -16 -10z"/>
<path d="M3330 2492 c0 -5 -24 -22 -52 -38 -46 -25 -50 -29 -29 -32 15 -2 36
7 59 25 37 30 51 53 33 53 -6 0 -11 -4 -11 -8z"/>
<path d="M3981 2487 c-1 -14 -8 -18 -28 -15 -26 3 -28 1 -25 -32 4 -35 17 -60
32 -60 11 0 33 96 27 112 -3 8 -6 6 -6 -5z"/>
<path d="M4043 2480 c25 -20 28 -50 5 -50 -6 0 -8 7 -4 15 8 21 -1 19 -13 -3
-8 -14 -6 -18 10 -19 10 -1 24 7 30 18 8 16 6 23 -13 39 -13 11 -27 19 -32 20
-5 0 3 -9 17 -20z"/>
<path d="M4003 2461 c0 -11 5 -18 9 -15 4 3 5 11 1 19 -7 21 -12 19 -10 -4z"/>
<path d="M4122 2468 c-22 -11 -25 -29 -6 -35 6 -2 16 8 22 22 6 14 11 25 9 24
-1 0 -12 -5 -25 -11z"/>
<path d="M4634 2426 c-3 -8 -4 -23 -2 -33 4 -20 214 -148 248 -150 11 -1 54
17 93 40 67 40 72 45 75 80 3 40 -7 48 -25 18 -13 -20 -112 -81 -133 -81 -15
0 -158 81 -207 117 -37 27 -42 28 -49 9z"/>
<path d="M4135 2410 c-3 -5 -1 -10 4 -10 6 0 11 5 11 10 0 6 -2 10 -4 10 -3 0
-8 -4 -11 -10z"/>
<path d="M4020 2395 c-7 -9 -11 -18 -8 -20 7 -8 38 5 38 15 0 17 -18 19 -30 5z"/>
<path d="M4100 2373 c0 -20 40 -37 54 -23 8 8 6 9 -8 4 -15 -6 -17 -4 -11 6 6
9 4 11 -5 5 -7 -4 -16 -2 -21 6 -6 10 -9 10 -9 2z"/>
<path d="M3147 2333 c-8 -14 -8 -178 0 -190 12 -17 285 -173 295 -167 4 3 8
49 8 103 l0 99 -141 81 c-142 82 -154 87 -162 74z"/>
<path d="M2887 2259 c-10 -6 -38 -11 -63 -11 -24 -1 -44 -3 -44 -5 0 -16 50
-75 68 -79 34 -9 63 21 55 57 -4 22 -2 29 11 29 9 0 16 5 16 10 0 13 -20 12
-43 -1z"/>
<path d="M2880 2095 c-14 -8 -20 -14 -14 -15 5 0 19 7 30 15 24 18 16 19 -16
0z"/>
<path d="M2828 2093 c7 -3 16 -2 19 1 4 3 -2 6 -13 5 -11 0 -14 -3 -6 -6z"/>
<path d="M2983 2018 c1 -7 -4 -12 -11 -10 -8 1 -11 -2 -7 -8 5 -8 11 -8 20 0
9 7 15 8 19 1 8 -12 -28 -33 -39 -23 -5 4 -5 1 -1 -6 5 -9 12 -9 27 -2 10 6
19 7 19 3 0 -4 4 -3 8 4 9 14 146 -63 175 -98 9 -12 17 -17 17 -11 0 16 -54
57 -135 102 -41 23 -75 46 -75 51 0 5 -4 9 -10 9 -5 0 -9 -6 -7 -12z"/>
<path d="M3090 2000 c-17 -10 -16 -12 27 -34 29 -14 63 -13 63 3 0 7 -57 41
-68 41 -4 0 -14 -4 -22 -10z"/>
<path d="M564 1975 c-4 -8 -4 -24 -1 -35 6 -22 -8 -28 -17 -7 -3 8 -9 6 -20
-7 -13 -16 -16 -48 -16 -162 l0 -143 44 -31 c25 -16 49 -30 55 -30 6 0 33 13
61 30 l51 30 6 -30 c6 -34 28 -50 68 -50 51 0 65 16 65 75 l0 53 -30 -15 c-24
-12 -37 -12 -64 -3 -50 16 -59 52 -29 114 14 30 20 35 40 30 13 -4 30 -1 38 6
16 13 9 40 -11 40 -9 0 -14 11 -14 30 0 35 -4 36 -48 10 -28 -17 -33 -18 -38
-5 -8 20 3 48 16 40 6 -4 7 -11 4 -17 -4 -6 3 -5 16 2 26 14 19 23 -35 45 -32
14 -37 14 -27 2 10 -12 9 -16 -5 -20 -10 -4 -25 -12 -35 -19 -12 -9 -22 -9
-40 -1 l-23 12 26 0 c36 1 54 24 39 50 -13 25 -68 29 -76 6z"/>
<path d="M1490 1957 c0 -18 11 -30 49 -50 26 -15 51 -24 54 -21 8 8 49 -16 77
-46 14 -15 44 -37 67 -48 35 -18 43 -19 53 -7 9 11 3 18 -37 38 -58 30 -197
112 -235 139 l-28 19 0 -24z"/>
<path d="M3347 1914 c-60 -35 -85 -44 -105 -40 -20 5 -23 4 -12 -4 8 -5 21
-10 28 -10 13 0 172 88 172 96 0 6 -1 6 -83 -42z"/>
<path d="M3045 1931 c-5 -9 3 -100 10 -111 2 -4 -3 -19 -11 -35 -15 -29 -15
-29 5 -11 11 10 18 23 14 29 -4 6 0 8 10 4 9 -3 16 -3 16 1 -4 21 3 22 22 1
l21 -24 -16 25 c-9 13 -16 43 -16 66 0 34 -4 43 -25 52 -13 6 -27 7 -30 3z"/>
<path d="M1500 1891 c10 -19 69 -58 187 -122 46 -25 65 -31 73 -23 15 15 -71
65 -118 69 -34 4 -72 29 -72 49 0 11 -54 46 -71 46 -6 0 -6 -8 1 -19z"/>
<path d="M3145 1880 c-3 -6 1 -7 9 -4 18 7 21 14 7 14 -6 0 -13 -4 -16 -10z"/>
<path d="M3171 1827 c-13 -21 -12 -21 5 -5 10 10 16 20 13 22 -3 3 -11 -5 -18
-17z"/>
<path d="M1385 1759 c-14 -17 -24 -37 -22 -43 7 -23 477 -287 477 -268 0 4
-10 36 -21 71 -16 48 -29 67 -53 82 -41 25 -46 24 -40 -6 2 -14 1 -25 -3 -24
-5 0 -69 35 -143 78 -124 72 -135 81 -138 110 -4 40 -23 40 -57 0z"/>
<path d="M3093 1743 c-3 -10 -8 -22 -10 -28 -3 -5 3 -1 11 9 16 20 21 36 11
36 -3 0 -8 -8 -12 -17z"/>
<path d="M3027 1714 c2 -7 12 -10 20 -7 12 5 14 3 8 -7 -5 -9 -4 -11 4 -6 15
9 7 22 -18 29 -13 3 -18 1 -14 -9z"/>
<path d="M3258 1693 c7 -3 16 -2 19 1 4 3 -2 6 -13 5 -11 0 -14 -3 -6 -6z"/>
<path d="M3018 1683 c7 -3 16 -2 19 1 4 3 -2 6 -13 5 -11 0 -14 -3 -6 -6z"/>
<path d="M3074 1664 c-18 -14 -18 -15 4 -4 12 6 22 13 22 15 0 8 -5 6 -26 -11z"/>
<path d="M3109 1649 c-13 -10 -30 -17 -37 -14 -7 3 -16 -3 -19 -12 -8 -20 27
-49 38 -31 5 8 12 7 24 -5 20 -21 32 -21 52 -2 8 8 19 12 25 9 6 -4 8 -2 4 4
-3 5 -2 12 3 14 6 1 1 14 -10 28 -10 14 -17 17 -13 8 4 -12 -4 -21 -28 -33
l-33 -16 24 19 c22 18 23 21 10 35 -14 13 -18 13 -40 -4z"/>
<path d="M2016 451 c-4 -5 3 -7 14 -4 23 6 26 13 6 13 -8 0 -17 -4 -20 -9z"/>
<path d="M2675 450 c11 -5 27 -9 35 -9 9 0 8 4 -5 9 -11 5 -27 9 -35 9 -9 0
-8 -4 5 -9z"/>
<path d="M3443 440 c-18 -11 -33 -25 -32 -32 0 -10 2 -10 6 0 8 20 62 44 86
37 17 -5 19 -4 7 4 -21 15 -31 14 -67 -9z"/>
<path d="M1980 435 c-7 -9 -11 -17 -9 -20 3 -2 10 5 17 15 14 24 10 26 -8 5z"/>
<path d="M2342 430 c0 -14 2 -19 5 -12 2 6 2 18 0 25 -3 6 -5 1 -5 -13z"/>
<path d="M2430 435 c7 -8 17 -15 22 -15 5 0 3 7 -6 15 -8 8 -18 15 -22 15 -3
0 -1 -7 6 -15z"/>
<path d="M2796 442 c-2 -4 12 -6 32 -4 56 5 62 10 15 11 -23 1 -44 -3 -47 -7z"/>
<path d="M3618 443 c12 -2 32 -2 45 0 12 2 2 4 -23 4 -25 0 -35 -2 -22 -4z"/>
<path d="M2436 375 c-11 -8 -15 -15 -9 -15 6 0 16 7 23 15 16 19 11 19 -14 0z"/>
<path d="M2610 386 c0 -2 7 -7 16 -10 8 -3 12 -2 9 4 -6 10 -25 14 -25 6z"/>
<path d="M3390 381 c0 -6 4 -13 10 -16 6 -3 7 1 4 9 -7 18 -14 21 -14 7z"/>
<path d="M2156 353 c-6 -14 -5 -15 5 -6 7 7 10 15 7 18 -3 3 -9 -2 -12 -12z"/>
<path d="M2968 358 c5 -5 16 -8 23 -6 8 3 3 7 -10 11 -17 4 -21 3 -13 -5z"/>
<path d="M3022 357 c-8 -10 -5 -16 11 -27 20 -12 21 -12 8 4 -13 15 -13 19 0
27 8 5 9 9 3 9 -6 0 -16 -6 -22 -13z"/>
<path d="M3231 354 c0 -11 3 -14 6 -6 3 7 2 16 -1 19 -3 4 -6 -2 -5 -13z"/>
<path d="M2342 315 c0 -16 2 -22 5 -12 2 9 2 23 0 30 -3 6 -5 -1 -5 -18z"/>
<path d="M2417 329 c7 -7 15 -10 18 -7 3 3 -2 9 -12 12 -14 6 -15 5 -6 -5z"/>
<path d="M2951 304 c0 -11 3 -14 6 -6 3 7 2 16 -1 19 -3 4 -6 -2 -5 -13z"/>
<path d="M3171 284 c0 -11 3 -14 6 -6 3 7 2 16 -1 19 -3 4 -6 -2 -5 -13z"/>
<path d="M1980 281 c0 -10 19 -25 25 -20 1 2 -3 10 -11 17 -8 7 -14 8 -14 3z"/>
<path d="M3065 281 c-3 -5 -2 -12 3 -15 5 -3 9 1 9 9 0 17 -3 19 -12 6z"/>
<path d="M3415 280 c3 -5 8 -10 11 -10 2 0 4 5 4 10 0 6 -5 10 -11 10 -5 0 -7
-4 -4 -10z"/>
<path d="M2607 269 c7 -7 15 -10 18 -7 3 3 -2 9 -12 12 -14 6 -15 5 -6 -5z"/>
<path d="M2780 270 c0 -6 7 -10 15 -10 8 0 15 2 15 4 0 2 -7 6 -15 10 -8 3
-15 1 -15 -4z"/>
<path d="M2838 263 c7 -3 16 -2 19 1 4 3 -2 6 -13 5 -11 0 -14 -3 -6 -6z"/>
<path d="M3588 263 c7 -3 16 -2 19 1 4 3 -2 6 -13 5 -11 0 -14 -3 -6 -6z"/>
<path d="M3468 253 c6 -2 18 -2 25 0 6 3 1 5 -13 5 -14 0 -19 -2 -12 -5z"/>
</g>
</svg>
